M48
; DRILL file {KiCad 7.0.9} date Saturday, January 06, 2024 at 02:55:16 PM
; FORMAT={-:-/ absolute / inch / decimal}
; #@! TF.CreationDate,2024-01-06T14:55:16-06:00
; #@! TF.GenerationSoftware,Kicad,Pcbnew,7.0.9
; #@! TF.FileFunction,Plated,1,2,PTH
FMAT,2
INCH
; #@! TA.AperFunction,Plated,PTH,ViaDrill
T1C0.0157
; #@! TA.AperFunction,Plated,PTH,ComponentDrill
T2C0.0295
; #@! TA.AperFunction,Plated,PTH,ComponentDrill
T3C0.0390
; #@! TA.AperFunction,Plated,PTH,ComponentDrill
T4C0.0394
; #@! TA.AperFunction,Plated,PTH,ComponentDrill
T5C0.0512
%
G90
G05
T1
X4.6299Y-3.6772
X4.8346Y-3.6378
X4.8425Y-3.4488
X4.937Y-2.5197
X4.9764Y-3.2756
X5.0236Y-2.8819
X5.0709Y-2.6142
X5.1024Y-3.2756
X5.2047Y-3.2756
X5.2283Y-2.4016
X5.2283Y-2.685
X5.2913Y-2.4803
X5.3701Y-2.9685
X5.377Y-3.0157
X5.378Y-2.4961
X5.3937Y-3.5354
X5.4016Y-2.6457
X5.4247Y-3.0241
X5.4409Y-2.6535
X5.4488Y-3.4252
X5.4567Y-2.3465
X5.4803Y-2.9685
X5.5827Y-2.3386
X5.5827Y-3.1496
X5.5984Y-2.5118
X5.7874Y-2.1654
X5.8583Y-2.8425
T2
X4.4252Y-3.5984
X4.4252Y-3.6772
T3
X4.7102Y-2.0394
X4.8874Y-2.0394
T4
X4.3622Y-3.0126
X4.3622Y-3.1126
X4.3622Y-3.2126
X4.6087Y-2.5496
X4.6087Y-2.6496
X4.6087Y-2.7496
X4.6087Y-2.8496
X4.6087Y-2.9496
X4.6087Y-3.0496
X4.6087Y-3.1496
X4.7087Y-2.5496
X4.7087Y-2.6496
X4.7087Y-2.7496
X4.7087Y-2.8496
X4.7087Y-2.9496
X4.7087Y-3.0496
X4.7087Y-3.1496
X5.3791Y-3.6614
X5.4008Y-2.2362
X5.4791Y-3.6614
X5.5008Y-2.2362
X5.5791Y-3.6614
X5.6008Y-2.2362
X5.6791Y-3.6614
X5.7008Y-2.2362
X6.424Y-2.1843
X6.424Y-2.2843
X6.424Y-2.3843
X6.424Y-2.4843
X6.424Y-2.5843
X6.424Y-2.6843
X6.424Y-2.7843
X6.424Y-2.8843
X6.424Y-2.9843
X6.424Y-3.0843
X6.424Y-3.1843
X6.424Y-3.2843
X6.424Y-3.3843
X6.424Y-3.4843
X6.424Y-3.5843
X6.424Y-3.6843
X6.524Y-2.1843
X6.524Y-2.2843
X6.524Y-2.3843
X6.524Y-2.4843
X6.524Y-2.5843
X6.524Y-2.6843
X6.524Y-2.7843
X6.524Y-2.8843
X6.524Y-2.9843
X6.524Y-3.0843
X6.524Y-3.1843
X6.524Y-3.2843
X6.524Y-3.3843
X6.524Y-3.4843
X6.524Y-3.5843
X6.524Y-3.6843
X6.624Y-2.1843
X6.624Y-2.2843
X6.624Y-2.3843
X6.624Y-2.4843
X6.624Y-2.5843
X6.624Y-2.6843
X6.624Y-2.7843
X6.624Y-2.8843
X6.624Y-2.9843
X6.624Y-3.0843
X6.624Y-3.1843
X6.624Y-3.2843
X6.624Y-3.3843
X6.624Y-3.4843
X6.624Y-3.5843
X6.624Y-3.6843
T5
X4.661Y-2.1374
X4.937Y-2.1374
T0
M30
