%TF.GenerationSoftware,KiCad,Pcbnew,7.0.9*%
%TF.CreationDate,2024-01-06T14:55:19-06:00*%
%TF.ProjectId,Capsense_v2,43617073-656e-4736-955f-76322e6b6963,rev?*%
%TF.SameCoordinates,Original*%
%TF.FileFunction,Soldermask,Bot*%
%TF.FilePolarity,Negative*%
%FSLAX46Y46*%
G04 Gerber Fmt 4.6, Leading zero omitted, Abs format (unit mm)*
G04 Created by KiCad (PCBNEW 7.0.9) date 2024-01-06 14:55:19*
%MOMM*%
%LPD*%
G01*
G04 APERTURE LIST*
G04 Aperture macros list*
%AMRoundRect*
0 Rectangle with rounded corners*
0 $1 Rounding radius*
0 $2 $3 $4 $5 $6 $7 $8 $9 X,Y pos of 4 corners*
0 Add a 4 corners polygon primitive as box body*
4,1,4,$2,$3,$4,$5,$6,$7,$8,$9,$2,$3,0*
0 Add four circle primitives for the rounded corners*
1,1,$1+$1,$2,$3*
1,1,$1+$1,$4,$5*
1,1,$1+$1,$6,$7*
1,1,$1+$1,$8,$9*
0 Add four rect primitives between the rounded corners*
20,1,$1+$1,$2,$3,$4,$5,0*
20,1,$1+$1,$4,$5,$6,$7,0*
20,1,$1+$1,$6,$7,$8,$9,0*
20,1,$1+$1,$8,$9,$2,$3,0*%
G04 Aperture macros list end*
%ADD10R,1.700000X1.700000*%
%ADD11O,1.700000X1.700000*%
%ADD12RoundRect,0.250000X0.600000X0.600000X-0.600000X0.600000X-0.600000X-0.600000X0.600000X-0.600000X0*%
%ADD13C,1.700000*%
%ADD14C,0.900000*%
%ADD15C,2.100000*%
%ADD16C,1.750000*%
%ADD17RoundRect,0.250000X-0.625000X0.350000X-0.625000X-0.350000X0.625000X-0.350000X0.625000X0.350000X0*%
%ADD18O,1.750000X1.200000*%
G04 APERTURE END LIST*
D10*
%TO.C,J5*%
X163170000Y-55480000D03*
X165710000Y-55480000D03*
X168250000Y-55480000D03*
D11*
X163170000Y-58020000D03*
X165710000Y-58020000D03*
X168250000Y-58020000D03*
X163170000Y-60560000D03*
X165710000Y-60560000D03*
X168250000Y-60560000D03*
X163170000Y-63100000D03*
X165710000Y-63100000D03*
X168250000Y-63100000D03*
X163170000Y-65640000D03*
X165710000Y-65640000D03*
X168250000Y-65640000D03*
X163170000Y-68180000D03*
X165710000Y-68180000D03*
X168250000Y-68180000D03*
X163170000Y-70720000D03*
X165710000Y-70720000D03*
X168250000Y-70720000D03*
X163170000Y-73260000D03*
X165710000Y-73260000D03*
X168250000Y-73260000D03*
X163170000Y-75800000D03*
X165710000Y-75800000D03*
X168250000Y-75800000D03*
X163170000Y-78340000D03*
X165710000Y-78340000D03*
X168250000Y-78340000D03*
X163170000Y-80880000D03*
X165710000Y-80880000D03*
X168250000Y-80880000D03*
X163170000Y-83420000D03*
X165710000Y-83420000D03*
X168250000Y-83420000D03*
X163170000Y-85960000D03*
X165710000Y-85960000D03*
X168250000Y-85960000D03*
X163170000Y-88500000D03*
X165710000Y-88500000D03*
X168250000Y-88500000D03*
X163170000Y-91040000D03*
X165710000Y-91040000D03*
X168250000Y-91040000D03*
X163170000Y-93580000D03*
X165710000Y-93580000D03*
X168250000Y-93580000D03*
%TD*%
D12*
%TO.C,J3*%
X119600000Y-80000000D03*
D13*
X117060000Y-80000000D03*
X119600000Y-77460000D03*
X117060000Y-77460000D03*
X119600000Y-74920000D03*
X117060000Y-74920000D03*
X119600000Y-72380000D03*
X117060000Y-72380000D03*
X119600000Y-69840000D03*
X117060000Y-69840000D03*
X119600000Y-67300000D03*
X117060000Y-67300000D03*
X119600000Y-64760000D03*
X117060000Y-64760000D03*
%TD*%
D10*
%TO.C,J2*%
X137180000Y-56800000D03*
D11*
X139720000Y-56800000D03*
X142260000Y-56800000D03*
X144800000Y-56800000D03*
%TD*%
D14*
%TO.C,SW2*%
X123600000Y-96100000D03*
X126600000Y-96100000D03*
%TD*%
D15*
%TO.C,SW1*%
X118390000Y-54290000D03*
X125400000Y-54290000D03*
D16*
X119640000Y-51800000D03*
X124140000Y-51800000D03*
%TD*%
D17*
%TO.C,J8*%
X112400000Y-91400000D03*
D18*
X112400000Y-93400000D03*
%TD*%
D10*
%TO.C,J1*%
X136630000Y-93000000D03*
D11*
X139170000Y-93000000D03*
X141710000Y-93000000D03*
X144250000Y-93000000D03*
%TD*%
D10*
%TO.C,J4*%
X110800000Y-76520000D03*
D11*
X110800000Y-79060000D03*
X110800000Y-81600000D03*
%TD*%
M02*
