%TF.GenerationSoftware,KiCad,Pcbnew,7.0.9*%
%TF.CreationDate,2024-01-06T14:55:19-06:00*%
%TF.ProjectId,Capsense_v2,43617073-656e-4736-955f-76322e6b6963,rev?*%
%TF.SameCoordinates,Original*%
%TF.FileFunction,Legend,Bot*%
%TF.FilePolarity,Positive*%
%FSLAX46Y46*%
G04 Gerber Fmt 4.6, Leading zero omitted, Abs format (unit mm)*
G04 Created by KiCad (PCBNEW 7.0.9) date 2024-01-06 14:55:19*
%MOMM*%
%LPD*%
G01*
G04 APERTURE LIST*
%ADD10C,0.150000*%
G04 APERTURE END LIST*
D10*
X159110839Y-56764104D02*
X158634649Y-56764104D01*
X159206077Y-57049819D02*
X158872744Y-56049819D01*
X158872744Y-56049819D02*
X158539411Y-57049819D01*
X158206077Y-56954580D02*
X158158458Y-57002200D01*
X158158458Y-57002200D02*
X158206077Y-57049819D01*
X158206077Y-57049819D02*
X158253696Y-57002200D01*
X158253696Y-57002200D02*
X158206077Y-56954580D01*
X158206077Y-56954580D02*
X158206077Y-57049819D01*
X156967982Y-57049819D02*
X156967982Y-56049819D01*
X156396554Y-57049819D02*
X156825125Y-56478390D01*
X156396554Y-56049819D02*
X156967982Y-56621247D01*
X155825125Y-57049819D02*
X155920363Y-57002200D01*
X155920363Y-57002200D02*
X155967982Y-56954580D01*
X155967982Y-56954580D02*
X156015601Y-56859342D01*
X156015601Y-56859342D02*
X156015601Y-56573628D01*
X156015601Y-56573628D02*
X155967982Y-56478390D01*
X155967982Y-56478390D02*
X155920363Y-56430771D01*
X155920363Y-56430771D02*
X155825125Y-56383152D01*
X155825125Y-56383152D02*
X155682268Y-56383152D01*
X155682268Y-56383152D02*
X155587030Y-56430771D01*
X155587030Y-56430771D02*
X155539411Y-56478390D01*
X155539411Y-56478390D02*
X155491792Y-56573628D01*
X155491792Y-56573628D02*
X155491792Y-56859342D01*
X155491792Y-56859342D02*
X155539411Y-56954580D01*
X155539411Y-56954580D02*
X155587030Y-57002200D01*
X155587030Y-57002200D02*
X155682268Y-57049819D01*
X155682268Y-57049819D02*
X155825125Y-57049819D01*
X155063220Y-57049819D02*
X155063220Y-56383152D01*
X155063220Y-56478390D02*
X155015601Y-56430771D01*
X155015601Y-56430771D02*
X154920363Y-56383152D01*
X154920363Y-56383152D02*
X154777506Y-56383152D01*
X154777506Y-56383152D02*
X154682268Y-56430771D01*
X154682268Y-56430771D02*
X154634649Y-56526009D01*
X154634649Y-56526009D02*
X154634649Y-57049819D01*
X154634649Y-56526009D02*
X154587030Y-56430771D01*
X154587030Y-56430771D02*
X154491792Y-56383152D01*
X154491792Y-56383152D02*
X154348935Y-56383152D01*
X154348935Y-56383152D02*
X154253696Y-56430771D01*
X154253696Y-56430771D02*
X154206077Y-56526009D01*
X154206077Y-56526009D02*
X154206077Y-57049819D01*
X153301316Y-57049819D02*
X153301316Y-56526009D01*
X153301316Y-56526009D02*
X153348935Y-56430771D01*
X153348935Y-56430771D02*
X153444173Y-56383152D01*
X153444173Y-56383152D02*
X153634649Y-56383152D01*
X153634649Y-56383152D02*
X153729887Y-56430771D01*
X153301316Y-57002200D02*
X153396554Y-57049819D01*
X153396554Y-57049819D02*
X153634649Y-57049819D01*
X153634649Y-57049819D02*
X153729887Y-57002200D01*
X153729887Y-57002200D02*
X153777506Y-56906961D01*
X153777506Y-56906961D02*
X153777506Y-56811723D01*
X153777506Y-56811723D02*
X153729887Y-56716485D01*
X153729887Y-56716485D02*
X153634649Y-56668866D01*
X153634649Y-56668866D02*
X153396554Y-56668866D01*
X153396554Y-56668866D02*
X153301316Y-56621247D01*
X152825125Y-56383152D02*
X152825125Y-57049819D01*
X152825125Y-56478390D02*
X152777506Y-56430771D01*
X152777506Y-56430771D02*
X152682268Y-56383152D01*
X152682268Y-56383152D02*
X152539411Y-56383152D01*
X152539411Y-56383152D02*
X152444173Y-56430771D01*
X152444173Y-56430771D02*
X152396554Y-56526009D01*
X152396554Y-56526009D02*
X152396554Y-57049819D01*
X151491792Y-57049819D02*
X151491792Y-56049819D01*
X151491792Y-57002200D02*
X151587030Y-57049819D01*
X151587030Y-57049819D02*
X151777506Y-57049819D01*
X151777506Y-57049819D02*
X151872744Y-57002200D01*
X151872744Y-57002200D02*
X151920363Y-56954580D01*
X151920363Y-56954580D02*
X151967982Y-56859342D01*
X151967982Y-56859342D02*
X151967982Y-56573628D01*
X151967982Y-56573628D02*
X151920363Y-56478390D01*
X151920363Y-56478390D02*
X151872744Y-56430771D01*
X151872744Y-56430771D02*
X151777506Y-56383152D01*
X151777506Y-56383152D02*
X151587030Y-56383152D01*
X151587030Y-56383152D02*
X151491792Y-56430771D01*
X150587030Y-56383152D02*
X150587030Y-57049819D01*
X151015601Y-56383152D02*
X151015601Y-56906961D01*
X151015601Y-56906961D02*
X150967982Y-57002200D01*
X150967982Y-57002200D02*
X150872744Y-57049819D01*
X150872744Y-57049819D02*
X150729887Y-57049819D01*
X150729887Y-57049819D02*
X150634649Y-57002200D01*
X150634649Y-57002200D02*
X150587030Y-56954580D01*
X150110839Y-57049819D02*
X150110839Y-56383152D01*
X150110839Y-56573628D02*
X150063220Y-56478390D01*
X150063220Y-56478390D02*
X150015601Y-56430771D01*
X150015601Y-56430771D02*
X149920363Y-56383152D01*
X149920363Y-56383152D02*
X149825125Y-56383152D01*
X149491791Y-57049819D02*
X149491791Y-56383152D01*
X149491791Y-56049819D02*
X149539410Y-56097438D01*
X149539410Y-56097438D02*
X149491791Y-56145057D01*
X149491791Y-56145057D02*
X149444172Y-56097438D01*
X149444172Y-56097438D02*
X149491791Y-56049819D01*
X149491791Y-56049819D02*
X149491791Y-56145057D01*
X158491792Y-58659819D02*
X158825125Y-58183628D01*
X159063220Y-58659819D02*
X159063220Y-57659819D01*
X159063220Y-57659819D02*
X158682268Y-57659819D01*
X158682268Y-57659819D02*
X158587030Y-57707438D01*
X158587030Y-57707438D02*
X158539411Y-57755057D01*
X158539411Y-57755057D02*
X158491792Y-57850295D01*
X158491792Y-57850295D02*
X158491792Y-57993152D01*
X158491792Y-57993152D02*
X158539411Y-58088390D01*
X158539411Y-58088390D02*
X158587030Y-58136009D01*
X158587030Y-58136009D02*
X158682268Y-58183628D01*
X158682268Y-58183628D02*
X159063220Y-58183628D01*
X157682268Y-58612200D02*
X157777506Y-58659819D01*
X157777506Y-58659819D02*
X157967982Y-58659819D01*
X157967982Y-58659819D02*
X158063220Y-58612200D01*
X158063220Y-58612200D02*
X158110839Y-58516961D01*
X158110839Y-58516961D02*
X158110839Y-58136009D01*
X158110839Y-58136009D02*
X158063220Y-58040771D01*
X158063220Y-58040771D02*
X157967982Y-57993152D01*
X157967982Y-57993152D02*
X157777506Y-57993152D01*
X157777506Y-57993152D02*
X157682268Y-58040771D01*
X157682268Y-58040771D02*
X157634649Y-58136009D01*
X157634649Y-58136009D02*
X157634649Y-58231247D01*
X157634649Y-58231247D02*
X158110839Y-58326485D01*
X157301315Y-57993152D02*
X157063220Y-58659819D01*
X157063220Y-58659819D02*
X156825125Y-57993152D01*
X155729886Y-57755057D02*
X155682267Y-57707438D01*
X155682267Y-57707438D02*
X155587029Y-57659819D01*
X155587029Y-57659819D02*
X155348934Y-57659819D01*
X155348934Y-57659819D02*
X155253696Y-57707438D01*
X155253696Y-57707438D02*
X155206077Y-57755057D01*
X155206077Y-57755057D02*
X155158458Y-57850295D01*
X155158458Y-57850295D02*
X155158458Y-57945533D01*
X155158458Y-57945533D02*
X155206077Y-58088390D01*
X155206077Y-58088390D02*
X155777505Y-58659819D01*
X155777505Y-58659819D02*
X155158458Y-58659819D01*
X154729886Y-58564580D02*
X154682267Y-58612200D01*
X154682267Y-58612200D02*
X154729886Y-58659819D01*
X154729886Y-58659819D02*
X154777505Y-58612200D01*
X154777505Y-58612200D02*
X154729886Y-58564580D01*
X154729886Y-58564580D02*
X154729886Y-58659819D01*
X154063220Y-57659819D02*
X153967982Y-57659819D01*
X153967982Y-57659819D02*
X153872744Y-57707438D01*
X153872744Y-57707438D02*
X153825125Y-57755057D01*
X153825125Y-57755057D02*
X153777506Y-57850295D01*
X153777506Y-57850295D02*
X153729887Y-58040771D01*
X153729887Y-58040771D02*
X153729887Y-58278866D01*
X153729887Y-58278866D02*
X153777506Y-58469342D01*
X153777506Y-58469342D02*
X153825125Y-58564580D01*
X153825125Y-58564580D02*
X153872744Y-58612200D01*
X153872744Y-58612200D02*
X153967982Y-58659819D01*
X153967982Y-58659819D02*
X154063220Y-58659819D01*
X154063220Y-58659819D02*
X154158458Y-58612200D01*
X154158458Y-58612200D02*
X154206077Y-58564580D01*
X154206077Y-58564580D02*
X154253696Y-58469342D01*
X154253696Y-58469342D02*
X154301315Y-58278866D01*
X154301315Y-58278866D02*
X154301315Y-58040771D01*
X154301315Y-58040771D02*
X154253696Y-57850295D01*
X154253696Y-57850295D02*
X154206077Y-57755057D01*
X154206077Y-57755057D02*
X154158458Y-57707438D01*
X154158458Y-57707438D02*
X154063220Y-57659819D01*
X158539411Y-60269819D02*
X159110839Y-60269819D01*
X158825125Y-60269819D02*
X158825125Y-59269819D01*
X158825125Y-59269819D02*
X158920363Y-59412676D01*
X158920363Y-59412676D02*
X159015601Y-59507914D01*
X159015601Y-59507914D02*
X159110839Y-59555533D01*
X157396554Y-59222200D02*
X158253696Y-60507914D01*
X156872744Y-59269819D02*
X156777506Y-59269819D01*
X156777506Y-59269819D02*
X156682268Y-59317438D01*
X156682268Y-59317438D02*
X156634649Y-59365057D01*
X156634649Y-59365057D02*
X156587030Y-59460295D01*
X156587030Y-59460295D02*
X156539411Y-59650771D01*
X156539411Y-59650771D02*
X156539411Y-59888866D01*
X156539411Y-59888866D02*
X156587030Y-60079342D01*
X156587030Y-60079342D02*
X156634649Y-60174580D01*
X156634649Y-60174580D02*
X156682268Y-60222200D01*
X156682268Y-60222200D02*
X156777506Y-60269819D01*
X156777506Y-60269819D02*
X156872744Y-60269819D01*
X156872744Y-60269819D02*
X156967982Y-60222200D01*
X156967982Y-60222200D02*
X157015601Y-60174580D01*
X157015601Y-60174580D02*
X157063220Y-60079342D01*
X157063220Y-60079342D02*
X157110839Y-59888866D01*
X157110839Y-59888866D02*
X157110839Y-59650771D01*
X157110839Y-59650771D02*
X157063220Y-59460295D01*
X157063220Y-59460295D02*
X157015601Y-59365057D01*
X157015601Y-59365057D02*
X156967982Y-59317438D01*
X156967982Y-59317438D02*
X156872744Y-59269819D01*
X155682268Y-59269819D02*
X155872744Y-59269819D01*
X155872744Y-59269819D02*
X155967982Y-59317438D01*
X155967982Y-59317438D02*
X156015601Y-59365057D01*
X156015601Y-59365057D02*
X156110839Y-59507914D01*
X156110839Y-59507914D02*
X156158458Y-59698390D01*
X156158458Y-59698390D02*
X156158458Y-60079342D01*
X156158458Y-60079342D02*
X156110839Y-60174580D01*
X156110839Y-60174580D02*
X156063220Y-60222200D01*
X156063220Y-60222200D02*
X155967982Y-60269819D01*
X155967982Y-60269819D02*
X155777506Y-60269819D01*
X155777506Y-60269819D02*
X155682268Y-60222200D01*
X155682268Y-60222200D02*
X155634649Y-60174580D01*
X155634649Y-60174580D02*
X155587030Y-60079342D01*
X155587030Y-60079342D02*
X155587030Y-59841247D01*
X155587030Y-59841247D02*
X155634649Y-59746009D01*
X155634649Y-59746009D02*
X155682268Y-59698390D01*
X155682268Y-59698390D02*
X155777506Y-59650771D01*
X155777506Y-59650771D02*
X155967982Y-59650771D01*
X155967982Y-59650771D02*
X156063220Y-59698390D01*
X156063220Y-59698390D02*
X156110839Y-59746009D01*
X156110839Y-59746009D02*
X156158458Y-59841247D01*
X154444173Y-59222200D02*
X155301315Y-60507914D01*
X154158458Y-59365057D02*
X154110839Y-59317438D01*
X154110839Y-59317438D02*
X154015601Y-59269819D01*
X154015601Y-59269819D02*
X153777506Y-59269819D01*
X153777506Y-59269819D02*
X153682268Y-59317438D01*
X153682268Y-59317438D02*
X153634649Y-59365057D01*
X153634649Y-59365057D02*
X153587030Y-59460295D01*
X153587030Y-59460295D02*
X153587030Y-59555533D01*
X153587030Y-59555533D02*
X153634649Y-59698390D01*
X153634649Y-59698390D02*
X154206077Y-60269819D01*
X154206077Y-60269819D02*
X153587030Y-60269819D01*
X152967982Y-59269819D02*
X152872744Y-59269819D01*
X152872744Y-59269819D02*
X152777506Y-59317438D01*
X152777506Y-59317438D02*
X152729887Y-59365057D01*
X152729887Y-59365057D02*
X152682268Y-59460295D01*
X152682268Y-59460295D02*
X152634649Y-59650771D01*
X152634649Y-59650771D02*
X152634649Y-59888866D01*
X152634649Y-59888866D02*
X152682268Y-60079342D01*
X152682268Y-60079342D02*
X152729887Y-60174580D01*
X152729887Y-60174580D02*
X152777506Y-60222200D01*
X152777506Y-60222200D02*
X152872744Y-60269819D01*
X152872744Y-60269819D02*
X152967982Y-60269819D01*
X152967982Y-60269819D02*
X153063220Y-60222200D01*
X153063220Y-60222200D02*
X153110839Y-60174580D01*
X153110839Y-60174580D02*
X153158458Y-60079342D01*
X153158458Y-60079342D02*
X153206077Y-59888866D01*
X153206077Y-59888866D02*
X153206077Y-59650771D01*
X153206077Y-59650771D02*
X153158458Y-59460295D01*
X153158458Y-59460295D02*
X153110839Y-59365057D01*
X153110839Y-59365057D02*
X153063220Y-59317438D01*
X153063220Y-59317438D02*
X152967982Y-59269819D01*
X152253696Y-59365057D02*
X152206077Y-59317438D01*
X152206077Y-59317438D02*
X152110839Y-59269819D01*
X152110839Y-59269819D02*
X151872744Y-59269819D01*
X151872744Y-59269819D02*
X151777506Y-59317438D01*
X151777506Y-59317438D02*
X151729887Y-59365057D01*
X151729887Y-59365057D02*
X151682268Y-59460295D01*
X151682268Y-59460295D02*
X151682268Y-59555533D01*
X151682268Y-59555533D02*
X151729887Y-59698390D01*
X151729887Y-59698390D02*
X152301315Y-60269819D01*
X152301315Y-60269819D02*
X151682268Y-60269819D01*
X150825125Y-59603152D02*
X150825125Y-60269819D01*
X151063220Y-59222200D02*
X151301315Y-59936485D01*
X151301315Y-59936485D02*
X150682268Y-59936485D01*
X124006077Y-79469819D02*
X123434649Y-79469819D01*
X123720363Y-80469819D02*
X123720363Y-79469819D01*
X123101315Y-80469819D02*
X123101315Y-79469819D01*
X123101315Y-79469819D02*
X122863220Y-79469819D01*
X122863220Y-79469819D02*
X122720363Y-79517438D01*
X122720363Y-79517438D02*
X122625125Y-79612676D01*
X122625125Y-79612676D02*
X122577506Y-79707914D01*
X122577506Y-79707914D02*
X122529887Y-79898390D01*
X122529887Y-79898390D02*
X122529887Y-80041247D01*
X122529887Y-80041247D02*
X122577506Y-80231723D01*
X122577506Y-80231723D02*
X122625125Y-80326961D01*
X122625125Y-80326961D02*
X122720363Y-80422200D01*
X122720363Y-80422200D02*
X122863220Y-80469819D01*
X122863220Y-80469819D02*
X123101315Y-80469819D01*
X121910839Y-79469819D02*
X121720363Y-79469819D01*
X121720363Y-79469819D02*
X121625125Y-79517438D01*
X121625125Y-79517438D02*
X121529887Y-79612676D01*
X121529887Y-79612676D02*
X121482268Y-79803152D01*
X121482268Y-79803152D02*
X121482268Y-80136485D01*
X121482268Y-80136485D02*
X121529887Y-80326961D01*
X121529887Y-80326961D02*
X121625125Y-80422200D01*
X121625125Y-80422200D02*
X121720363Y-80469819D01*
X121720363Y-80469819D02*
X121910839Y-80469819D01*
X121910839Y-80469819D02*
X122006077Y-80422200D01*
X122006077Y-80422200D02*
X122101315Y-80326961D01*
X122101315Y-80326961D02*
X122148934Y-80136485D01*
X122148934Y-80136485D02*
X122148934Y-79803152D01*
X122148934Y-79803152D02*
X122101315Y-79612676D01*
X122101315Y-79612676D02*
X122006077Y-79517438D01*
X122006077Y-79517438D02*
X121910839Y-79469819D01*
X123091792Y-67869819D02*
X123425125Y-67393628D01*
X123663220Y-67869819D02*
X123663220Y-66869819D01*
X123663220Y-66869819D02*
X123282268Y-66869819D01*
X123282268Y-66869819D02*
X123187030Y-66917438D01*
X123187030Y-66917438D02*
X123139411Y-66965057D01*
X123139411Y-66965057D02*
X123091792Y-67060295D01*
X123091792Y-67060295D02*
X123091792Y-67203152D01*
X123091792Y-67203152D02*
X123139411Y-67298390D01*
X123139411Y-67298390D02*
X123187030Y-67346009D01*
X123187030Y-67346009D02*
X123282268Y-67393628D01*
X123282268Y-67393628D02*
X123663220Y-67393628D01*
X122710839Y-67822200D02*
X122567982Y-67869819D01*
X122567982Y-67869819D02*
X122329887Y-67869819D01*
X122329887Y-67869819D02*
X122234649Y-67822200D01*
X122234649Y-67822200D02*
X122187030Y-67774580D01*
X122187030Y-67774580D02*
X122139411Y-67679342D01*
X122139411Y-67679342D02*
X122139411Y-67584104D01*
X122139411Y-67584104D02*
X122187030Y-67488866D01*
X122187030Y-67488866D02*
X122234649Y-67441247D01*
X122234649Y-67441247D02*
X122329887Y-67393628D01*
X122329887Y-67393628D02*
X122520363Y-67346009D01*
X122520363Y-67346009D02*
X122615601Y-67298390D01*
X122615601Y-67298390D02*
X122663220Y-67250771D01*
X122663220Y-67250771D02*
X122710839Y-67155533D01*
X122710839Y-67155533D02*
X122710839Y-67060295D01*
X122710839Y-67060295D02*
X122663220Y-66965057D01*
X122663220Y-66965057D02*
X122615601Y-66917438D01*
X122615601Y-66917438D02*
X122520363Y-66869819D01*
X122520363Y-66869819D02*
X122282268Y-66869819D01*
X122282268Y-66869819D02*
X122139411Y-66917438D01*
X121853696Y-66869819D02*
X121282268Y-66869819D01*
X121567982Y-67869819D02*
X121567982Y-66869819D01*
X115806077Y-77069819D02*
X115234649Y-77069819D01*
X115520363Y-78069819D02*
X115520363Y-77069819D01*
X114948934Y-77784104D02*
X114472744Y-77784104D01*
X115044172Y-78069819D02*
X114710839Y-77069819D01*
X114710839Y-77069819D02*
X114377506Y-78069819D01*
X113472744Y-78069819D02*
X113806077Y-77593628D01*
X114044172Y-78069819D02*
X114044172Y-77069819D01*
X114044172Y-77069819D02*
X113663220Y-77069819D01*
X113663220Y-77069819D02*
X113567982Y-77117438D01*
X113567982Y-77117438D02*
X113520363Y-77165057D01*
X113520363Y-77165057D02*
X113472744Y-77260295D01*
X113472744Y-77260295D02*
X113472744Y-77403152D01*
X113472744Y-77403152D02*
X113520363Y-77498390D01*
X113520363Y-77498390D02*
X113567982Y-77546009D01*
X113567982Y-77546009D02*
X113663220Y-77593628D01*
X113663220Y-77593628D02*
X114044172Y-77593628D01*
X112520363Y-77117438D02*
X112615601Y-77069819D01*
X112615601Y-77069819D02*
X112758458Y-77069819D01*
X112758458Y-77069819D02*
X112901315Y-77117438D01*
X112901315Y-77117438D02*
X112996553Y-77212676D01*
X112996553Y-77212676D02*
X113044172Y-77307914D01*
X113044172Y-77307914D02*
X113091791Y-77498390D01*
X113091791Y-77498390D02*
X113091791Y-77641247D01*
X113091791Y-77641247D02*
X113044172Y-77831723D01*
X113044172Y-77831723D02*
X112996553Y-77926961D01*
X112996553Y-77926961D02*
X112901315Y-78022200D01*
X112901315Y-78022200D02*
X112758458Y-78069819D01*
X112758458Y-78069819D02*
X112663220Y-78069819D01*
X112663220Y-78069819D02*
X112520363Y-78022200D01*
X112520363Y-78022200D02*
X112472744Y-77974580D01*
X112472744Y-77974580D02*
X112472744Y-77641247D01*
X112472744Y-77641247D02*
X112663220Y-77641247D01*
X115063220Y-67869819D02*
X115063220Y-66869819D01*
X115063220Y-66869819D02*
X114491792Y-67869819D01*
X114491792Y-67869819D02*
X114491792Y-66869819D01*
X113444173Y-67774580D02*
X113491792Y-67822200D01*
X113491792Y-67822200D02*
X113634649Y-67869819D01*
X113634649Y-67869819D02*
X113729887Y-67869819D01*
X113729887Y-67869819D02*
X113872744Y-67822200D01*
X113872744Y-67822200D02*
X113967982Y-67726961D01*
X113967982Y-67726961D02*
X114015601Y-67631723D01*
X114015601Y-67631723D02*
X114063220Y-67441247D01*
X114063220Y-67441247D02*
X114063220Y-67298390D01*
X114063220Y-67298390D02*
X114015601Y-67107914D01*
X114015601Y-67107914D02*
X113967982Y-67012676D01*
X113967982Y-67012676D02*
X113872744Y-66917438D01*
X113872744Y-66917438D02*
X113729887Y-66869819D01*
X113729887Y-66869819D02*
X113634649Y-66869819D01*
X113634649Y-66869819D02*
X113491792Y-66917438D01*
X113491792Y-66917438D02*
X113444173Y-66965057D01*
X123806077Y-74069819D02*
X123234649Y-74069819D01*
X123520363Y-75069819D02*
X123520363Y-74069819D01*
X122901315Y-75069819D02*
X122901315Y-74069819D01*
X122901315Y-74069819D02*
X122567982Y-74784104D01*
X122567982Y-74784104D02*
X122234649Y-74069819D01*
X122234649Y-74069819D02*
X122234649Y-75069819D01*
X121806077Y-75022200D02*
X121663220Y-75069819D01*
X121663220Y-75069819D02*
X121425125Y-75069819D01*
X121425125Y-75069819D02*
X121329887Y-75022200D01*
X121329887Y-75022200D02*
X121282268Y-74974580D01*
X121282268Y-74974580D02*
X121234649Y-74879342D01*
X121234649Y-74879342D02*
X121234649Y-74784104D01*
X121234649Y-74784104D02*
X121282268Y-74688866D01*
X121282268Y-74688866D02*
X121329887Y-74641247D01*
X121329887Y-74641247D02*
X121425125Y-74593628D01*
X121425125Y-74593628D02*
X121615601Y-74546009D01*
X121615601Y-74546009D02*
X121710839Y-74498390D01*
X121710839Y-74498390D02*
X121758458Y-74450771D01*
X121758458Y-74450771D02*
X121806077Y-74355533D01*
X121806077Y-74355533D02*
X121806077Y-74260295D01*
X121806077Y-74260295D02*
X121758458Y-74165057D01*
X121758458Y-74165057D02*
X121710839Y-74117438D01*
X121710839Y-74117438D02*
X121615601Y-74069819D01*
X121615601Y-74069819D02*
X121377506Y-74069819D01*
X121377506Y-74069819D02*
X121234649Y-74117438D01*
X115063220Y-65269819D02*
X115063220Y-64269819D01*
X115063220Y-64269819D02*
X114491792Y-65269819D01*
X114491792Y-65269819D02*
X114491792Y-64269819D01*
X113444173Y-65174580D02*
X113491792Y-65222200D01*
X113491792Y-65222200D02*
X113634649Y-65269819D01*
X113634649Y-65269819D02*
X113729887Y-65269819D01*
X113729887Y-65269819D02*
X113872744Y-65222200D01*
X113872744Y-65222200D02*
X113967982Y-65126961D01*
X113967982Y-65126961D02*
X114015601Y-65031723D01*
X114015601Y-65031723D02*
X114063220Y-64841247D01*
X114063220Y-64841247D02*
X114063220Y-64698390D01*
X114063220Y-64698390D02*
X114015601Y-64507914D01*
X114015601Y-64507914D02*
X113967982Y-64412676D01*
X113967982Y-64412676D02*
X113872744Y-64317438D01*
X113872744Y-64317438D02*
X113729887Y-64269819D01*
X113729887Y-64269819D02*
X113634649Y-64269819D01*
X113634649Y-64269819D02*
X113491792Y-64317438D01*
X113491792Y-64317438D02*
X113444173Y-64365057D01*
X123606077Y-76869819D02*
X123034649Y-76869819D01*
X123320363Y-77869819D02*
X123320363Y-76869819D01*
X122701315Y-77869819D02*
X122701315Y-76869819D01*
X122701315Y-76869819D02*
X122463220Y-76869819D01*
X122463220Y-76869819D02*
X122320363Y-76917438D01*
X122320363Y-76917438D02*
X122225125Y-77012676D01*
X122225125Y-77012676D02*
X122177506Y-77107914D01*
X122177506Y-77107914D02*
X122129887Y-77298390D01*
X122129887Y-77298390D02*
X122129887Y-77441247D01*
X122129887Y-77441247D02*
X122177506Y-77631723D01*
X122177506Y-77631723D02*
X122225125Y-77726961D01*
X122225125Y-77726961D02*
X122320363Y-77822200D01*
X122320363Y-77822200D02*
X122463220Y-77869819D01*
X122463220Y-77869819D02*
X122701315Y-77869819D01*
X121701315Y-77869819D02*
X121701315Y-76869819D01*
X123806077Y-71869819D02*
X123234649Y-71869819D01*
X123520363Y-72869819D02*
X123520363Y-71869819D01*
X122329887Y-72774580D02*
X122377506Y-72822200D01*
X122377506Y-72822200D02*
X122520363Y-72869819D01*
X122520363Y-72869819D02*
X122615601Y-72869819D01*
X122615601Y-72869819D02*
X122758458Y-72822200D01*
X122758458Y-72822200D02*
X122853696Y-72726961D01*
X122853696Y-72726961D02*
X122901315Y-72631723D01*
X122901315Y-72631723D02*
X122948934Y-72441247D01*
X122948934Y-72441247D02*
X122948934Y-72298390D01*
X122948934Y-72298390D02*
X122901315Y-72107914D01*
X122901315Y-72107914D02*
X122853696Y-72012676D01*
X122853696Y-72012676D02*
X122758458Y-71917438D01*
X122758458Y-71917438D02*
X122615601Y-71869819D01*
X122615601Y-71869819D02*
X122520363Y-71869819D01*
X122520363Y-71869819D02*
X122377506Y-71917438D01*
X122377506Y-71917438D02*
X122329887Y-71965057D01*
X121901315Y-72869819D02*
X121901315Y-71869819D01*
X121329887Y-72869819D02*
X121758458Y-72298390D01*
X121329887Y-71869819D02*
X121901315Y-72441247D01*
X115606077Y-80069819D02*
X115034649Y-80069819D01*
X115320363Y-81069819D02*
X115320363Y-80069819D01*
X114510839Y-80069819D02*
X114320363Y-80069819D01*
X114320363Y-80069819D02*
X114225125Y-80117438D01*
X114225125Y-80117438D02*
X114129887Y-80212676D01*
X114129887Y-80212676D02*
X114082268Y-80403152D01*
X114082268Y-80403152D02*
X114082268Y-80736485D01*
X114082268Y-80736485D02*
X114129887Y-80926961D01*
X114129887Y-80926961D02*
X114225125Y-81022200D01*
X114225125Y-81022200D02*
X114320363Y-81069819D01*
X114320363Y-81069819D02*
X114510839Y-81069819D01*
X114510839Y-81069819D02*
X114606077Y-81022200D01*
X114606077Y-81022200D02*
X114701315Y-80926961D01*
X114701315Y-80926961D02*
X114748934Y-80736485D01*
X114748934Y-80736485D02*
X114748934Y-80403152D01*
X114748934Y-80403152D02*
X114701315Y-80212676D01*
X114701315Y-80212676D02*
X114606077Y-80117438D01*
X114606077Y-80117438D02*
X114510839Y-80069819D01*
X113463220Y-80069819D02*
X113272744Y-80069819D01*
X113272744Y-80069819D02*
X113177506Y-80117438D01*
X113177506Y-80117438D02*
X113082268Y-80212676D01*
X113082268Y-80212676D02*
X113034649Y-80403152D01*
X113034649Y-80403152D02*
X113034649Y-80736485D01*
X113034649Y-80736485D02*
X113082268Y-80926961D01*
X113082268Y-80926961D02*
X113177506Y-81022200D01*
X113177506Y-81022200D02*
X113272744Y-81069819D01*
X113272744Y-81069819D02*
X113463220Y-81069819D01*
X113463220Y-81069819D02*
X113558458Y-81022200D01*
X113558458Y-81022200D02*
X113653696Y-80926961D01*
X113653696Y-80926961D02*
X113701315Y-80736485D01*
X113701315Y-80736485D02*
X113701315Y-80403152D01*
X113701315Y-80403152D02*
X113653696Y-80212676D01*
X113653696Y-80212676D02*
X113558458Y-80117438D01*
X113558458Y-80117438D02*
X113463220Y-80069819D01*
X112129887Y-81069819D02*
X112606077Y-81069819D01*
X112606077Y-81069819D02*
X112606077Y-80069819D01*
X123263220Y-65269819D02*
X123263220Y-64269819D01*
X123263220Y-64269819D02*
X122691792Y-65269819D01*
X122691792Y-65269819D02*
X122691792Y-64269819D01*
X121644173Y-65174580D02*
X121691792Y-65222200D01*
X121691792Y-65222200D02*
X121834649Y-65269819D01*
X121834649Y-65269819D02*
X121929887Y-65269819D01*
X121929887Y-65269819D02*
X122072744Y-65222200D01*
X122072744Y-65222200D02*
X122167982Y-65126961D01*
X122167982Y-65126961D02*
X122215601Y-65031723D01*
X122215601Y-65031723D02*
X122263220Y-64841247D01*
X122263220Y-64841247D02*
X122263220Y-64698390D01*
X122263220Y-64698390D02*
X122215601Y-64507914D01*
X122215601Y-64507914D02*
X122167982Y-64412676D01*
X122167982Y-64412676D02*
X122072744Y-64317438D01*
X122072744Y-64317438D02*
X121929887Y-64269819D01*
X121929887Y-64269819D02*
X121834649Y-64269819D01*
X121834649Y-64269819D02*
X121691792Y-64317438D01*
X121691792Y-64317438D02*
X121644173Y-64365057D01*
X115063220Y-70469819D02*
X115063220Y-69469819D01*
X115063220Y-69469819D02*
X114491792Y-70469819D01*
X114491792Y-70469819D02*
X114491792Y-69469819D01*
X113444173Y-70374580D02*
X113491792Y-70422200D01*
X113491792Y-70422200D02*
X113634649Y-70469819D01*
X113634649Y-70469819D02*
X113729887Y-70469819D01*
X113729887Y-70469819D02*
X113872744Y-70422200D01*
X113872744Y-70422200D02*
X113967982Y-70326961D01*
X113967982Y-70326961D02*
X114015601Y-70231723D01*
X114015601Y-70231723D02*
X114063220Y-70041247D01*
X114063220Y-70041247D02*
X114063220Y-69898390D01*
X114063220Y-69898390D02*
X114015601Y-69707914D01*
X114015601Y-69707914D02*
X113967982Y-69612676D01*
X113967982Y-69612676D02*
X113872744Y-69517438D01*
X113872744Y-69517438D02*
X113729887Y-69469819D01*
X113729887Y-69469819D02*
X113634649Y-69469819D01*
X113634649Y-69469819D02*
X113491792Y-69517438D01*
X113491792Y-69517438D02*
X113444173Y-69565057D01*
X115063220Y-75469819D02*
X115063220Y-74469819D01*
X115063220Y-74469819D02*
X114491792Y-75469819D01*
X114491792Y-75469819D02*
X114491792Y-74469819D01*
X113444173Y-75374580D02*
X113491792Y-75422200D01*
X113491792Y-75422200D02*
X113634649Y-75469819D01*
X113634649Y-75469819D02*
X113729887Y-75469819D01*
X113729887Y-75469819D02*
X113872744Y-75422200D01*
X113872744Y-75422200D02*
X113967982Y-75326961D01*
X113967982Y-75326961D02*
X114015601Y-75231723D01*
X114015601Y-75231723D02*
X114063220Y-75041247D01*
X114063220Y-75041247D02*
X114063220Y-74898390D01*
X114063220Y-74898390D02*
X114015601Y-74707914D01*
X114015601Y-74707914D02*
X113967982Y-74612676D01*
X113967982Y-74612676D02*
X113872744Y-74517438D01*
X113872744Y-74517438D02*
X113729887Y-74469819D01*
X113729887Y-74469819D02*
X113634649Y-74469819D01*
X113634649Y-74469819D02*
X113491792Y-74517438D01*
X113491792Y-74517438D02*
X113444173Y-74565057D01*
X115406077Y-71869819D02*
X114834649Y-71869819D01*
X115120363Y-72869819D02*
X115120363Y-71869819D01*
X114501315Y-72346009D02*
X114167982Y-72346009D01*
X114025125Y-72869819D02*
X114501315Y-72869819D01*
X114501315Y-72869819D02*
X114501315Y-71869819D01*
X114501315Y-71869819D02*
X114025125Y-71869819D01*
X113644172Y-72822200D02*
X113501315Y-72869819D01*
X113501315Y-72869819D02*
X113263220Y-72869819D01*
X113263220Y-72869819D02*
X113167982Y-72822200D01*
X113167982Y-72822200D02*
X113120363Y-72774580D01*
X113120363Y-72774580D02*
X113072744Y-72679342D01*
X113072744Y-72679342D02*
X113072744Y-72584104D01*
X113072744Y-72584104D02*
X113120363Y-72488866D01*
X113120363Y-72488866D02*
X113167982Y-72441247D01*
X113167982Y-72441247D02*
X113263220Y-72393628D01*
X113263220Y-72393628D02*
X113453696Y-72346009D01*
X113453696Y-72346009D02*
X113548934Y-72298390D01*
X113548934Y-72298390D02*
X113596553Y-72250771D01*
X113596553Y-72250771D02*
X113644172Y-72155533D01*
X113644172Y-72155533D02*
X113644172Y-72060295D01*
X113644172Y-72060295D02*
X113596553Y-71965057D01*
X113596553Y-71965057D02*
X113548934Y-71917438D01*
X113548934Y-71917438D02*
X113453696Y-71869819D01*
X113453696Y-71869819D02*
X113215601Y-71869819D01*
X113215601Y-71869819D02*
X113072744Y-71917438D01*
X112787029Y-71869819D02*
X112215601Y-71869819D01*
X112501315Y-72869819D02*
X112501315Y-71869819D01*
X123139411Y-69317438D02*
X123234649Y-69269819D01*
X123234649Y-69269819D02*
X123377506Y-69269819D01*
X123377506Y-69269819D02*
X123520363Y-69317438D01*
X123520363Y-69317438D02*
X123615601Y-69412676D01*
X123615601Y-69412676D02*
X123663220Y-69507914D01*
X123663220Y-69507914D02*
X123710839Y-69698390D01*
X123710839Y-69698390D02*
X123710839Y-69841247D01*
X123710839Y-69841247D02*
X123663220Y-70031723D01*
X123663220Y-70031723D02*
X123615601Y-70126961D01*
X123615601Y-70126961D02*
X123520363Y-70222200D01*
X123520363Y-70222200D02*
X123377506Y-70269819D01*
X123377506Y-70269819D02*
X123282268Y-70269819D01*
X123282268Y-70269819D02*
X123139411Y-70222200D01*
X123139411Y-70222200D02*
X123091792Y-70174580D01*
X123091792Y-70174580D02*
X123091792Y-69841247D01*
X123091792Y-69841247D02*
X123282268Y-69841247D01*
X122663220Y-70269819D02*
X122663220Y-69269819D01*
X122663220Y-69269819D02*
X122091792Y-70269819D01*
X122091792Y-70269819D02*
X122091792Y-69269819D01*
X121615601Y-70269819D02*
X121615601Y-69269819D01*
X121615601Y-69269819D02*
X121377506Y-69269819D01*
X121377506Y-69269819D02*
X121234649Y-69317438D01*
X121234649Y-69317438D02*
X121139411Y-69412676D01*
X121139411Y-69412676D02*
X121091792Y-69507914D01*
X121091792Y-69507914D02*
X121044173Y-69698390D01*
X121044173Y-69698390D02*
X121044173Y-69841247D01*
X121044173Y-69841247D02*
X121091792Y-70031723D01*
X121091792Y-70031723D02*
X121139411Y-70126961D01*
X121139411Y-70126961D02*
X121234649Y-70222200D01*
X121234649Y-70222200D02*
X121377506Y-70269819D01*
X121377506Y-70269819D02*
X121615601Y-70269819D01*
%TO.C,G\u002A\u002A\u002A*%
G36*
X156483367Y-93705210D02*
G01*
X156457916Y-93730661D01*
X156432465Y-93705210D01*
X156457916Y-93679759D01*
X156483367Y-93705210D01*
G37*
G36*
X151087776Y-93959719D02*
G01*
X151062325Y-93985170D01*
X151036874Y-93959719D01*
X151062325Y-93934268D01*
X151087776Y-93959719D01*
G37*
G36*
X150731463Y-93959719D02*
G01*
X150706012Y-93985170D01*
X150680561Y-93959719D01*
X150706012Y-93934268D01*
X150731463Y-93959719D01*
G37*
G36*
X150680561Y-94061523D02*
G01*
X150655111Y-94086973D01*
X150629660Y-94061523D01*
X150655111Y-94036072D01*
X150680561Y-94061523D01*
G37*
G36*
X158400668Y-93696726D02*
G01*
X158408632Y-93712037D01*
X158366734Y-93730661D01*
X158339787Y-93726987D01*
X158332799Y-93696726D01*
X158340260Y-93690634D01*
X158400668Y-93696726D01*
G37*
G36*
X148695391Y-93985170D02*
G01*
X148691718Y-94012117D01*
X148661457Y-94019104D01*
X148655365Y-94011644D01*
X148661457Y-93951235D01*
X148676767Y-93943272D01*
X148695391Y-93985170D01*
G37*
G36*
X153391698Y-95291411D02*
G01*
X153398319Y-95324105D01*
X153343227Y-95386299D01*
X153281291Y-95420447D01*
X153232173Y-95400976D01*
X153247238Y-95338746D01*
X153316013Y-95289411D01*
X153391698Y-95291411D01*
G37*
G36*
X152891067Y-95322395D02*
G01*
X152858620Y-95379836D01*
X152818756Y-95416819D01*
X152775164Y-95434124D01*
X152771366Y-95399579D01*
X152813183Y-95339450D01*
X152874350Y-95308617D01*
X152891067Y-95322395D01*
G37*
G36*
X158278686Y-95344470D02*
G01*
X158315832Y-95416429D01*
X158311910Y-95433544D01*
X158264930Y-95435871D01*
X158251174Y-95425469D01*
X158214028Y-95353510D01*
X158217950Y-95336395D01*
X158264930Y-95334068D01*
X158278686Y-95344470D01*
G37*
G36*
X156407014Y-94290581D02*
G01*
X156448542Y-94332279D01*
X156483367Y-94398617D01*
X156464225Y-94439855D01*
X156411059Y-94429216D01*
X156361559Y-94362770D01*
X156336517Y-94287935D01*
X156343903Y-94250381D01*
X156407014Y-94290581D01*
G37*
G36*
X155626263Y-95062745D02*
G01*
X155668938Y-95100244D01*
X155648302Y-95122613D01*
X155567135Y-95119758D01*
X155507301Y-95100360D01*
X155465331Y-95073622D01*
X155484276Y-95062319D01*
X155567135Y-95054108D01*
X155626263Y-95062745D01*
G37*
G36*
X153756090Y-95321044D02*
G01*
X153754709Y-95380716D01*
X153732898Y-95420537D01*
X153674080Y-95461322D01*
X153670306Y-95461193D01*
X153640617Y-95428260D01*
X153664113Y-95366897D01*
X153725160Y-95320270D01*
X153756090Y-95321044D01*
G37*
G36*
X153072946Y-93966506D02*
G01*
X153072572Y-93974677D01*
X153039012Y-94053039D01*
X153031960Y-94059099D01*
X152978778Y-94060674D01*
X152973821Y-94038933D01*
X153012712Y-93974141D01*
X153047121Y-93947580D01*
X153072946Y-93966506D01*
G37*
G36*
X152092941Y-94262079D02*
G01*
X152104036Y-94335629D01*
X152073261Y-94407968D01*
X152066838Y-94413327D01*
X151999132Y-94414821D01*
X151978231Y-94356240D01*
X152005052Y-94278437D01*
X152060356Y-94239679D01*
X152092941Y-94262079D01*
G37*
G36*
X151566214Y-95310711D02*
G01*
X151595655Y-95357168D01*
X151562859Y-95427388D01*
X151532570Y-95451313D01*
X151477502Y-95452621D01*
X151476583Y-95384969D01*
X151495693Y-95349125D01*
X151551338Y-95308617D01*
X151566214Y-95310711D01*
G37*
G36*
X151138678Y-94086973D02*
G01*
X151162676Y-94130577D01*
X151188021Y-94214228D01*
X151179011Y-94229520D01*
X151138678Y-94188777D01*
X151114679Y-94145173D01*
X151089335Y-94061523D01*
X151098345Y-94046230D01*
X151138678Y-94086973D01*
G37*
G36*
X149989356Y-93946695D02*
G01*
X149987976Y-94006367D01*
X149966164Y-94046188D01*
X149907347Y-94086973D01*
X149903572Y-94086844D01*
X149873884Y-94053912D01*
X149897379Y-93992549D01*
X149958427Y-93945922D01*
X149989356Y-93946695D01*
G37*
G36*
X152614121Y-95597881D02*
G01*
X152642405Y-95638402D01*
X152648637Y-95737861D01*
X152626269Y-95776680D01*
X152559293Y-95817635D01*
X152527780Y-95804215D01*
X152562078Y-95743512D01*
X152589248Y-95693307D01*
X152586294Y-95603532D01*
X152570125Y-95564017D01*
X152614121Y-95597881D01*
G37*
G36*
X158257065Y-95583716D02*
G01*
X158288625Y-95618781D01*
X158315832Y-95718835D01*
X158296116Y-95786034D01*
X158204300Y-95817635D01*
X158150897Y-95816622D01*
X158124035Y-95800894D01*
X158186625Y-95749004D01*
X158237669Y-95695716D01*
X158239391Y-95613885D01*
X158222687Y-95577263D01*
X158257065Y-95583716D01*
G37*
G36*
X156229883Y-93951579D02*
G01*
X156247596Y-94043737D01*
X156254687Y-94188935D01*
X156252230Y-94280415D01*
X156238445Y-94397492D01*
X156216511Y-94443286D01*
X156202632Y-94426134D01*
X156184894Y-94333986D01*
X156177956Y-94188777D01*
X156180530Y-94097152D01*
X156194352Y-93980128D01*
X156216133Y-93934426D01*
X156229883Y-93951579D01*
G37*
G36*
X160495631Y-94151049D02*
G01*
X160572813Y-94269538D01*
X160589425Y-94304596D01*
X160628085Y-94399513D01*
X160617889Y-94436809D01*
X160556285Y-94443286D01*
X160490365Y-94427299D01*
X160489027Y-94359573D01*
X160494175Y-94302761D01*
X160435031Y-94212887D01*
X160426665Y-94206686D01*
X160379796Y-94155368D01*
X160419436Y-94122853D01*
X160423573Y-94121480D01*
X160495631Y-94151049D01*
G37*
G36*
X158410900Y-93976004D02*
G01*
X158417636Y-94099778D01*
X158417712Y-94112861D01*
X158427448Y-94258433D01*
X158448532Y-94362770D01*
X158451557Y-94419956D01*
X158378751Y-94443286D01*
X158346543Y-94441820D01*
X158305569Y-94419325D01*
X158299580Y-94349215D01*
X158322462Y-94205686D01*
X158325956Y-94187206D01*
X158363049Y-94021956D01*
X158392034Y-93950809D01*
X158410900Y-93976004D01*
G37*
G36*
X153329229Y-94074755D02*
G01*
X153347701Y-94151251D01*
X153327262Y-94316539D01*
X153270746Y-94401777D01*
X153158089Y-94440229D01*
X153022044Y-94387730D01*
X153006125Y-94376381D01*
X152971515Y-94345534D01*
X153022044Y-94356180D01*
X153145826Y-94354031D01*
X153241256Y-94271344D01*
X153279780Y-94123359D01*
X153284141Y-94023842D01*
X153297771Y-94006712D01*
X153329229Y-94074755D01*
G37*
G36*
X150267442Y-94165871D02*
G01*
X150254468Y-94290276D01*
X150212265Y-94382204D01*
X150133845Y-94428848D01*
X150022088Y-94438684D01*
X149942846Y-94392967D01*
X149936724Y-94371200D01*
X149981230Y-94369312D01*
X150001564Y-94373527D01*
X150091465Y-94337984D01*
X150179173Y-94241582D01*
X150236737Y-94112424D01*
X150243354Y-94088403D01*
X150258962Y-94077297D01*
X150267442Y-94165871D01*
G37*
G36*
X157602445Y-93944619D02*
G01*
X157672786Y-94004876D01*
X157724527Y-94126223D01*
X157739244Y-94261629D01*
X157705851Y-94365921D01*
X157660117Y-94407215D01*
X157567887Y-94443286D01*
X157550125Y-94442783D01*
X157523577Y-94424358D01*
X157574120Y-94363298D01*
X157634712Y-94263414D01*
X157648219Y-94115719D01*
X157590481Y-93988988D01*
X157587581Y-93985901D01*
X157554466Y-93939048D01*
X157602445Y-93944619D01*
G37*
G36*
X154013983Y-95408609D02*
G01*
X154038914Y-95508626D01*
X154019563Y-95633648D01*
X153960092Y-95737646D01*
X153898408Y-95785870D01*
X153789221Y-95815039D01*
X153709579Y-95767316D01*
X153704125Y-95744740D01*
X153752196Y-95745284D01*
X153811630Y-95741572D01*
X153892308Y-95674490D01*
X153950805Y-95567337D01*
X153962385Y-95454352D01*
X153960858Y-95401687D01*
X153991840Y-95386614D01*
X154013983Y-95408609D01*
G37*
G36*
X153103208Y-95382941D02*
G01*
X153131688Y-95425883D01*
X153171441Y-95565056D01*
X153122057Y-95719178D01*
X153091626Y-95756943D01*
X152988642Y-95808486D01*
X152873291Y-95814034D01*
X152792986Y-95766733D01*
X152793731Y-95736465D01*
X152860102Y-95715831D01*
X152972073Y-95682734D01*
X153050114Y-95577648D01*
X153058296Y-95424406D01*
X153044734Y-95344433D01*
X153054110Y-95322279D01*
X153103208Y-95382941D01*
G37*
G36*
X157360496Y-93641420D02*
G01*
X157399849Y-93704854D01*
X157413482Y-93822824D01*
X157412536Y-93857201D01*
X157408271Y-94029621D01*
X157404227Y-94214228D01*
X157394890Y-94363664D01*
X157374611Y-94443955D01*
X157349259Y-94441486D01*
X157324337Y-94365688D01*
X157305348Y-94225993D01*
X157297796Y-94031830D01*
X157298184Y-93959907D01*
X157306182Y-93767375D01*
X157325620Y-93664039D01*
X157357953Y-93640426D01*
X157360496Y-93641420D01*
G37*
G36*
X156377481Y-95054307D02*
G01*
X156419490Y-95070210D01*
X156441372Y-95125220D01*
X156447230Y-95240134D01*
X156441169Y-95435753D01*
X156433376Y-95558391D01*
X156411007Y-95724197D01*
X156383827Y-95803903D01*
X156358143Y-95794101D01*
X156340262Y-95691381D01*
X156336490Y-95492334D01*
X156335722Y-95333939D01*
X156325814Y-95188162D01*
X156308648Y-95110571D01*
X156303719Y-95077143D01*
X156365834Y-95053989D01*
X156377481Y-95054307D01*
G37*
G36*
X152789312Y-93950156D02*
G01*
X152836691Y-94020081D01*
X152859071Y-94142179D01*
X152853162Y-94273290D01*
X152815678Y-94370259D01*
X152774600Y-94407159D01*
X152679311Y-94443286D01*
X152671128Y-94442983D01*
X152652887Y-94416646D01*
X152723720Y-94345920D01*
X152793447Y-94280721D01*
X152816969Y-94205335D01*
X152783487Y-94088245D01*
X152762208Y-94028101D01*
X152749763Y-93955554D01*
X152783487Y-93947747D01*
X152789312Y-93950156D01*
G37*
G36*
X152523089Y-93670592D02*
G01*
X152548437Y-93766169D01*
X152568023Y-93959719D01*
X152567501Y-93981462D01*
X152558978Y-94082614D01*
X152544291Y-94220627D01*
X152528323Y-94351332D01*
X152515959Y-94430561D01*
X152487576Y-94443286D01*
X152483601Y-94438187D01*
X152472643Y-94363681D01*
X152464997Y-94218867D01*
X152462125Y-94027588D01*
X152463219Y-93939167D01*
X152475404Y-93760344D01*
X152497053Y-93669734D01*
X152523089Y-93670592D01*
G37*
G36*
X150493714Y-93909228D02*
G01*
X150512803Y-94031594D01*
X150521713Y-94179700D01*
X150518186Y-94314347D01*
X150499962Y-94396338D01*
X150438651Y-94437164D01*
X150361798Y-94436088D01*
X150324249Y-94392384D01*
X150325728Y-94380217D01*
X150375151Y-94341483D01*
X150393819Y-94323443D01*
X150416997Y-94230134D01*
X150426052Y-94083969D01*
X150429244Y-93988366D01*
X150444686Y-93882835D01*
X150468620Y-93852765D01*
X150493714Y-93909228D01*
G37*
G36*
X158680592Y-93757068D02*
G01*
X158685397Y-93945297D01*
X158687795Y-94042000D01*
X158703213Y-94211732D01*
X158728252Y-94328757D01*
X158735831Y-94349871D01*
X158743122Y-94424262D01*
X158683610Y-94443406D01*
X158668306Y-94442604D01*
X158631051Y-94422603D01*
X158611625Y-94360707D01*
X158606597Y-94237039D01*
X158612534Y-94031724D01*
X158617435Y-93933492D01*
X158632871Y-93758221D01*
X158650857Y-93667648D01*
X158667921Y-93665891D01*
X158680592Y-93757068D01*
G37*
G36*
X157597908Y-95316475D02*
G01*
X157639785Y-95325772D01*
X157585726Y-95344621D01*
X157531360Y-95373602D01*
X157506118Y-95447695D01*
X157509740Y-95593225D01*
X157514618Y-95721277D01*
X157496139Y-95797474D01*
X157445201Y-95817635D01*
X157436767Y-95817385D01*
X157384535Y-95783370D01*
X157384296Y-95677655D01*
X157394336Y-95613327D01*
X157424875Y-95448179D01*
X157456707Y-95357235D01*
X157500269Y-95319636D01*
X157566000Y-95314521D01*
X157597908Y-95316475D01*
G37*
G36*
X151333121Y-95055896D02*
G01*
X151350693Y-95118541D01*
X151363060Y-95253548D01*
X151367736Y-95436030D01*
X151365489Y-95602586D01*
X151354160Y-95734920D01*
X151329601Y-95800206D01*
X151287783Y-95817676D01*
X151269990Y-95816368D01*
X151234874Y-95788819D01*
X151228048Y-95707863D01*
X151245891Y-95550400D01*
X151258941Y-95453569D01*
X151278397Y-95285050D01*
X151287667Y-95168637D01*
X151298318Y-95097420D01*
X151329559Y-95054225D01*
X151333121Y-95055896D01*
G37*
G36*
X149285538Y-93941995D02*
G01*
X149297745Y-93969238D01*
X149266693Y-93966753D01*
X149261770Y-93963845D01*
X149200771Y-93962984D01*
X149163070Y-94048185D01*
X149145307Y-94226639D01*
X149142417Y-94268620D01*
X149118762Y-94381170D01*
X149081868Y-94426343D01*
X149069468Y-94423674D01*
X149038362Y-94363831D01*
X149036514Y-94250817D01*
X149058835Y-94118672D01*
X149100235Y-94001432D01*
X149155623Y-93933136D01*
X149219662Y-93909862D01*
X149285538Y-93941995D01*
G37*
G36*
X152131676Y-95303829D02*
G01*
X152185542Y-95325204D01*
X152185697Y-95341561D01*
X152179909Y-95432925D01*
X152168071Y-95575851D01*
X152158405Y-95652269D01*
X152126925Y-95771517D01*
X152087594Y-95817635D01*
X152076859Y-95815303D01*
X152046529Y-95746508D01*
X152047220Y-95585105D01*
X152052572Y-95444240D01*
X152034713Y-95377453D01*
X151987297Y-95368772D01*
X151948995Y-95369938D01*
X151918268Y-95334068D01*
X151946332Y-95314467D01*
X152034345Y-95300833D01*
X152131676Y-95303829D01*
G37*
G36*
X151809171Y-95337998D02*
G01*
X151863423Y-95435761D01*
X151884261Y-95565885D01*
X151860565Y-95690380D01*
X151811503Y-95756286D01*
X151702239Y-95807936D01*
X151581702Y-95804016D01*
X151484212Y-95748302D01*
X151444089Y-95644569D01*
X151454142Y-95626497D01*
X151505171Y-95654749D01*
X151561319Y-95694451D01*
X151661467Y-95699929D01*
X151741157Y-95639473D01*
X151777972Y-95535499D01*
X151749499Y-95410420D01*
X151721175Y-95338548D01*
X151748800Y-95308617D01*
X151809171Y-95337998D01*
G37*
G36*
X151146033Y-95316784D02*
G01*
X151181790Y-95325412D01*
X151119885Y-95344873D01*
X151061567Y-95376480D01*
X151040906Y-95449717D01*
X151050005Y-95593478D01*
X151050129Y-95594584D01*
X151059520Y-95735152D01*
X151041272Y-95801177D01*
X150988538Y-95817635D01*
X150961216Y-95815663D01*
X150928249Y-95789530D01*
X150926928Y-95713478D01*
X150953941Y-95563126D01*
X150959016Y-95538807D01*
X150997805Y-95395901D01*
X151043531Y-95328737D01*
X151110553Y-95314521D01*
X151146033Y-95316784D01*
G37*
G36*
X152623298Y-95338705D02*
G01*
X152664113Y-95429378D01*
X152645241Y-95443708D01*
X152591147Y-95392598D01*
X152550100Y-95348560D01*
X152478363Y-95330604D01*
X152429362Y-95402784D01*
X152411223Y-95557646D01*
X152410807Y-95588036D01*
X152399411Y-95714840D01*
X152377288Y-95783700D01*
X152348416Y-95808058D01*
X152323089Y-95800015D01*
X152311921Y-95725373D01*
X152309419Y-95566556D01*
X152309456Y-95550677D01*
X152318162Y-95400420D01*
X152349407Y-95320510D01*
X152413665Y-95282391D01*
X152523543Y-95282128D01*
X152623298Y-95338705D01*
G37*
G36*
X151464868Y-93944002D02*
G01*
X151447673Y-94015961D01*
X151394221Y-94135847D01*
X151345397Y-94237709D01*
X151298962Y-94382959D01*
X151314909Y-94478657D01*
X151393187Y-94545090D01*
X151455274Y-94588576D01*
X151494990Y-94648684D01*
X151485320Y-94685053D01*
X151435079Y-94689183D01*
X151360742Y-94637210D01*
X151283727Y-94546242D01*
X151225449Y-94433386D01*
X151225180Y-94432599D01*
X151231144Y-94346678D01*
X151273639Y-94219068D01*
X151336417Y-94084626D01*
X151403236Y-93978213D01*
X151457849Y-93934688D01*
X151464868Y-93944002D01*
G37*
G36*
X155414429Y-95435871D02*
G01*
X155414382Y-95453774D01*
X155407052Y-95642037D01*
X155389176Y-95770265D01*
X155363527Y-95817635D01*
X155363478Y-95817635D01*
X155337378Y-95770401D01*
X155319351Y-95644102D01*
X155312626Y-95461322D01*
X155309847Y-95282768D01*
X155297291Y-95169872D01*
X155269495Y-95117690D01*
X155221002Y-95105010D01*
X155170428Y-95112302D01*
X155068297Y-95166092D01*
X155020998Y-95196793D01*
X155007215Y-95140641D01*
X155015056Y-95102068D01*
X155074221Y-95064479D01*
X155210822Y-95054108D01*
X155414429Y-95054108D01*
X155414429Y-95435871D01*
G37*
G36*
X153530283Y-95440426D02*
G01*
X153504516Y-95521579D01*
X153396065Y-95608294D01*
X153361911Y-95624814D01*
X153299053Y-95676329D01*
X153320982Y-95729719D01*
X153386057Y-95763559D01*
X153481431Y-95726851D01*
X153508634Y-95710485D01*
X153568013Y-95692197D01*
X153581964Y-95744076D01*
X153580360Y-95762304D01*
X153536270Y-95805925D01*
X153416533Y-95808134D01*
X153304386Y-95775308D01*
X153232524Y-95695137D01*
X153241001Y-95596890D01*
X153337092Y-95508048D01*
X153420709Y-95455608D01*
X153492107Y-95390075D01*
X153516682Y-95376853D01*
X153530283Y-95440426D01*
G37*
G36*
X150934291Y-94066078D02*
G01*
X150908524Y-94147230D01*
X150800073Y-94233945D01*
X150765919Y-94250465D01*
X150703061Y-94301981D01*
X150724990Y-94355370D01*
X150790065Y-94389210D01*
X150885439Y-94352502D01*
X150912642Y-94336136D01*
X150972021Y-94317848D01*
X150985972Y-94369727D01*
X150984368Y-94387955D01*
X150940278Y-94431576D01*
X150820541Y-94433786D01*
X150708394Y-94400960D01*
X150636532Y-94320788D01*
X150645009Y-94222542D01*
X150741100Y-94133699D01*
X150824717Y-94081259D01*
X150896115Y-94015726D01*
X150920690Y-94002504D01*
X150934291Y-94066078D01*
G37*
G36*
X148944794Y-94012737D02*
G01*
X148920267Y-94093202D01*
X148812371Y-94210377D01*
X148741877Y-94290277D01*
X148713999Y-94365154D01*
X148751835Y-94391841D01*
X148850411Y-94351850D01*
X148875701Y-94336608D01*
X148935705Y-94317811D01*
X148949900Y-94369727D01*
X148948296Y-94387955D01*
X148904206Y-94431576D01*
X148784469Y-94433786D01*
X148652068Y-94393230D01*
X148595041Y-94313770D01*
X148625426Y-94220526D01*
X148746357Y-94137849D01*
X148854443Y-94072611D01*
X148876785Y-94000702D01*
X148869817Y-93967995D01*
X148899581Y-93960079D01*
X148944794Y-94012737D01*
G37*
G36*
X157764481Y-95314956D02*
G01*
X157795198Y-95391754D01*
X157806814Y-95536077D01*
X157812112Y-95665817D01*
X157835074Y-95732448D01*
X157883167Y-95734239D01*
X157936879Y-95671976D01*
X157959519Y-95535233D01*
X157959619Y-95524208D01*
X157974663Y-95402433D01*
X158007516Y-95335863D01*
X158024235Y-95339705D01*
X158046147Y-95413786D01*
X158053578Y-95555984D01*
X158051643Y-95805767D01*
X157857362Y-95808449D01*
X157806901Y-95808934D01*
X157709987Y-95800379D01*
X157683909Y-95759432D01*
X157705309Y-95663888D01*
X157726560Y-95538142D01*
X157720337Y-95412631D01*
X157715069Y-95349036D01*
X157749975Y-95308617D01*
X157764481Y-95314956D01*
G37*
G36*
X155904205Y-95321642D02*
G01*
X155875100Y-95381891D01*
X155831309Y-95474610D01*
X155828691Y-95597145D01*
X155870518Y-95698844D01*
X155948898Y-95741282D01*
X156012436Y-95726494D01*
X156043199Y-95663136D01*
X156050702Y-95524876D01*
X156065538Y-95381376D01*
X156100528Y-95329454D01*
X156140222Y-95372795D01*
X156169167Y-95512956D01*
X156171457Y-95542008D01*
X156153331Y-95675878D01*
X156067364Y-95773710D01*
X156020578Y-95806785D01*
X155935564Y-95835232D01*
X155847095Y-95796575D01*
X155772628Y-95713186D01*
X155733891Y-95585261D01*
X155741404Y-95453380D01*
X155792624Y-95350260D01*
X155885011Y-95308617D01*
X155904205Y-95321642D01*
G37*
G36*
X155841334Y-93942221D02*
G01*
X155978720Y-93947493D01*
X156036524Y-93963448D01*
X156010051Y-93992665D01*
X155945610Y-94075937D01*
X155915301Y-94254934D01*
X155912375Y-94328548D01*
X155906943Y-94409407D01*
X155899310Y-94395292D01*
X155885691Y-94290785D01*
X155876494Y-94231039D01*
X155826607Y-94075524D01*
X155759634Y-93991457D01*
X155691758Y-93983466D01*
X155639164Y-94056180D01*
X155618036Y-94214228D01*
X155617201Y-94264342D01*
X155597542Y-94399509D01*
X155550502Y-94443286D01*
X155548422Y-94443260D01*
X155512695Y-94421544D01*
X155508503Y-94344816D01*
X155534491Y-94191765D01*
X155586015Y-93940244D01*
X155841334Y-93942221D01*
G37*
G36*
X153521534Y-93666396D02*
G01*
X153542371Y-93766451D01*
X153552697Y-93962689D01*
X153560249Y-94140420D01*
X153587252Y-94291705D01*
X153637587Y-94360621D01*
X153715506Y-94357477D01*
X153731857Y-94349453D01*
X153775292Y-94278639D01*
X153776490Y-94134131D01*
X153770695Y-94046033D01*
X153781610Y-93981384D01*
X153820764Y-93993255D01*
X153864437Y-94039755D01*
X153918703Y-94186213D01*
X153888404Y-94339560D01*
X153877333Y-94358107D01*
X153791765Y-94424056D01*
X153640014Y-94443286D01*
X153447137Y-94443286D01*
X153450924Y-94036460D01*
X153455117Y-93900455D01*
X153471993Y-93737686D01*
X153496104Y-93658237D01*
X153521534Y-93666396D01*
G37*
G36*
X157928657Y-94006367D02*
G01*
X157924036Y-94020051D01*
X157937803Y-94072407D01*
X158033430Y-94086973D01*
X158122734Y-94073781D01*
X158132815Y-94028207D01*
X158120430Y-93999761D01*
X158155262Y-94005760D01*
X158187046Y-94043946D01*
X158211702Y-94156228D01*
X158199413Y-94285922D01*
X158150759Y-94384392D01*
X158107011Y-94412075D01*
X157995837Y-94432102D01*
X157884982Y-94415410D01*
X157822778Y-94364874D01*
X157849861Y-94328750D01*
X157944709Y-94313972D01*
X158057426Y-94291178D01*
X158107270Y-94232566D01*
X158081556Y-94168321D01*
X157975270Y-94128823D01*
X157929588Y-94119250D01*
X157848714Y-94067192D01*
X157833128Y-93999764D01*
X157895927Y-93946982D01*
X157929908Y-93946830D01*
X157928657Y-94006367D01*
G37*
G36*
X160277111Y-93695973D02*
G01*
X160313454Y-93756295D01*
X160369323Y-93871280D01*
X160396301Y-93933434D01*
X160414716Y-93995661D01*
X160385560Y-93972444D01*
X160335343Y-93916933D01*
X160272750Y-93887693D01*
X160249787Y-93946994D01*
X160249749Y-93948806D01*
X160225969Y-94037752D01*
X160171587Y-94159979D01*
X160168532Y-94165929D01*
X160123460Y-94287955D01*
X160119401Y-94376312D01*
X160107508Y-94424856D01*
X160006719Y-94442507D01*
X160006619Y-94442506D01*
X159925094Y-94431127D01*
X159926243Y-94404330D01*
X159927195Y-94403684D01*
X159975582Y-94338122D01*
X160045614Y-94206315D01*
X160122474Y-94036072D01*
X160127611Y-94023795D01*
X160196540Y-93861026D01*
X160248210Y-93742499D01*
X160271778Y-93693124D01*
X160277111Y-93695973D01*
G37*
G36*
X156916032Y-94061523D02*
G01*
X156912923Y-94258021D01*
X156900467Y-94374423D01*
X156874061Y-94429440D01*
X156829103Y-94443286D01*
X156792485Y-94437445D01*
X156757222Y-94385698D01*
X156756615Y-94259908D01*
X156759780Y-94218189D01*
X156757232Y-94120685D01*
X156712282Y-94091486D01*
X156598404Y-94104547D01*
X156568318Y-94109031D01*
X156465390Y-94109924D01*
X156446326Y-94071593D01*
X156502299Y-94028782D01*
X156615114Y-94008780D01*
X156615397Y-94008776D01*
X156716136Y-93996782D01*
X156750602Y-93970604D01*
X156743863Y-93936384D01*
X156737876Y-93836197D01*
X156722996Y-93778208D01*
X156648798Y-93714847D01*
X156634367Y-93709969D01*
X156645261Y-93694715D01*
X156737876Y-93685664D01*
X156916032Y-93679759D01*
X156916032Y-94061523D01*
G37*
G36*
X149569082Y-93922267D02*
G01*
X149599172Y-93943509D01*
X149689032Y-93952270D01*
X149718234Y-93954398D01*
X149751825Y-94024334D01*
X149771908Y-94185338D01*
X149775812Y-94264472D01*
X149766553Y-94399459D01*
X149729079Y-94443318D01*
X149714735Y-94438194D01*
X149675708Y-94365162D01*
X149652727Y-94227393D01*
X149645907Y-94159177D01*
X149611983Y-94040260D01*
X149547996Y-93994602D01*
X149543536Y-93993805D01*
X149490288Y-94002470D01*
X149465201Y-94067140D01*
X149458918Y-94210496D01*
X149456423Y-94282333D01*
X149438168Y-94397746D01*
X149408016Y-94443286D01*
X149393665Y-94434213D01*
X149367490Y-94354888D01*
X149357115Y-94220461D01*
X149373313Y-94069170D01*
X149422201Y-93947617D01*
X149491598Y-93892825D01*
X149569082Y-93922267D01*
G37*
G36*
X159728616Y-93916942D02*
G01*
X159779445Y-93950450D01*
X159804354Y-94033765D01*
X159818111Y-94192854D01*
X159822407Y-94298866D01*
X159819594Y-94462748D01*
X159805563Y-94570541D01*
X159786903Y-94620890D01*
X159764001Y-94615564D01*
X159731629Y-94519639D01*
X159709626Y-94371661D01*
X159716762Y-94201503D01*
X159717409Y-94197737D01*
X159722666Y-94078816D01*
X159692487Y-94028436D01*
X159592388Y-94020029D01*
X159521363Y-94048093D01*
X159484134Y-94137875D01*
X159475095Y-94238514D01*
X159502899Y-94366933D01*
X159522532Y-94407315D01*
X159527775Y-94440958D01*
X159469456Y-94398877D01*
X159416786Y-94319018D01*
X159387710Y-94181515D01*
X159397517Y-94042456D01*
X159448397Y-93948695D01*
X159527804Y-93918268D01*
X159656276Y-93908363D01*
X159728616Y-93916942D01*
G37*
G36*
X155373772Y-93684773D02*
G01*
X155394307Y-93756376D01*
X155407903Y-93888838D01*
X155413940Y-94051261D01*
X155411798Y-94212752D01*
X155400856Y-94342414D01*
X155380495Y-94409352D01*
X155320042Y-94432252D01*
X155204129Y-94443286D01*
X155198745Y-94443237D01*
X155060781Y-94397622D01*
X154979605Y-94277097D01*
X154965900Y-94097182D01*
X154972736Y-94054748D01*
X155020340Y-93974726D01*
X155134469Y-93943850D01*
X155287175Y-93927980D01*
X155169740Y-94012399D01*
X155158770Y-94020753D01*
X155082992Y-94122105D01*
X155063148Y-94235854D01*
X155097765Y-94328597D01*
X155185371Y-94366933D01*
X155238441Y-94356889D01*
X155272110Y-94310920D01*
X155290883Y-94207057D01*
X155302226Y-94023346D01*
X155302383Y-94019818D01*
X155316706Y-93848381D01*
X155339482Y-93726286D01*
X155365853Y-93679759D01*
X155373772Y-93684773D01*
G37*
G36*
X159108216Y-93937095D02*
G01*
X159155560Y-93967607D01*
X159181163Y-93942098D01*
X159187555Y-93920351D01*
X159244790Y-93910869D01*
X159259502Y-93928245D01*
X159282002Y-94023890D01*
X159293481Y-94173906D01*
X159293421Y-94346692D01*
X159281307Y-94510647D01*
X159256620Y-94634168D01*
X159251050Y-94649821D01*
X159214248Y-94703966D01*
X159183909Y-94666710D01*
X159163307Y-94547130D01*
X159155712Y-94354299D01*
X159155710Y-94346721D01*
X159152529Y-94166495D01*
X159138870Y-94065151D01*
X159108181Y-94020566D01*
X159053908Y-94010621D01*
X159003097Y-94018212D01*
X158962398Y-94070932D01*
X158952105Y-94197247D01*
X158949600Y-94278152D01*
X158930996Y-94343734D01*
X158888477Y-94330994D01*
X158834067Y-94246676D01*
X158842324Y-94115910D01*
X158930060Y-93981764D01*
X158958774Y-93954374D01*
X159038479Y-93908286D01*
X159108216Y-93937095D01*
G37*
G36*
X151991283Y-93710109D02*
G01*
X151995328Y-93712742D01*
X152090353Y-93810357D01*
X152083990Y-93912624D01*
X151976171Y-94020970D01*
X151956117Y-94035116D01*
X151792145Y-94152264D01*
X151697298Y-94228435D01*
X151658850Y-94279902D01*
X151664075Y-94322941D01*
X151700248Y-94373825D01*
X151734822Y-94418565D01*
X151745665Y-94442760D01*
X151685872Y-94398877D01*
X151685818Y-94398834D01*
X151606091Y-94287653D01*
X151623632Y-94164232D01*
X151736774Y-94040320D01*
X151872263Y-93936481D01*
X151956046Y-93862753D01*
X151985741Y-93815671D01*
X151976672Y-93778511D01*
X151971062Y-93770649D01*
X151888107Y-93732632D01*
X151784710Y-93746807D01*
X151717005Y-93807014D01*
X151677001Y-93868796D01*
X151622417Y-93871083D01*
X151596794Y-93787497D01*
X151630086Y-93713609D01*
X151729292Y-93665393D01*
X151861056Y-93661996D01*
X151991283Y-93710109D01*
G37*
G36*
X157348698Y-95541021D02*
G01*
X157339377Y-95603317D01*
X157295375Y-95720355D01*
X157276005Y-95750801D01*
X157197981Y-95799893D01*
X157059530Y-95801266D01*
X156877008Y-95782542D01*
X156880213Y-95534671D01*
X156992385Y-95534671D01*
X156992566Y-95551816D01*
X157004866Y-95670981D01*
X157030561Y-95731409D01*
X157108177Y-95741220D01*
X157171668Y-95671798D01*
X157195992Y-95533433D01*
X157193068Y-95459537D01*
X157165018Y-95380026D01*
X157094189Y-95359519D01*
X157050124Y-95364751D01*
X157004204Y-95413147D01*
X156992385Y-95534671D01*
X156880213Y-95534671D01*
X156880401Y-95520128D01*
X156883879Y-95303124D01*
X156889219Y-95165159D01*
X156898909Y-95090565D01*
X156915485Y-95059998D01*
X156941483Y-95054108D01*
X156953953Y-95055311D01*
X156986357Y-95092284D01*
X156980550Y-95168183D01*
X157004251Y-95261357D01*
X157064802Y-95277633D01*
X157130284Y-95282473D01*
X157228881Y-95345252D01*
X157313057Y-95441985D01*
X157345967Y-95533433D01*
X157348698Y-95541021D01*
G37*
G36*
X154727255Y-95435871D02*
G01*
X154727057Y-95513273D01*
X154722495Y-95678184D01*
X154707478Y-95769769D01*
X154676224Y-95809197D01*
X154622947Y-95817635D01*
X154561148Y-95807095D01*
X154532488Y-95752849D01*
X154536365Y-95626753D01*
X154554092Y-95435871D01*
X154376488Y-95638286D01*
X154307330Y-95711866D01*
X154211344Y-95790387D01*
X154163038Y-95798940D01*
X154172939Y-95739552D01*
X154251573Y-95614248D01*
X154269717Y-95589558D01*
X154330907Y-95495043D01*
X154333381Y-95443446D01*
X154281506Y-95404110D01*
X154220069Y-95344926D01*
X154202584Y-95257715D01*
X154370942Y-95257715D01*
X154386528Y-95340159D01*
X154460020Y-95400730D01*
X154489477Y-95403540D01*
X154536474Y-95369480D01*
X154549099Y-95257715D01*
X154547506Y-95205056D01*
X154523530Y-95125168D01*
X154460020Y-95114700D01*
X154403794Y-95147549D01*
X154370942Y-95257715D01*
X154202584Y-95257715D01*
X154196833Y-95229032D01*
X154253868Y-95115190D01*
X154268932Y-95103766D01*
X154374825Y-95068368D01*
X154521103Y-95054108D01*
X154727255Y-95054108D01*
X154727255Y-95257715D01*
X154727255Y-95435871D01*
G37*
G36*
X154905411Y-94159706D02*
G01*
X154887817Y-94289480D01*
X154816333Y-94388307D01*
X154765453Y-94414821D01*
X154641360Y-94435473D01*
X154532338Y-94368352D01*
X154515115Y-94351627D01*
X154454232Y-94319299D01*
X154395215Y-94368352D01*
X154387076Y-94376796D01*
X154283430Y-94424553D01*
X154130206Y-94443286D01*
X154020764Y-94438805D01*
X153957092Y-94415211D01*
X153958282Y-94362770D01*
X153971182Y-94301476D01*
X153984155Y-94158253D01*
X153987386Y-94044263D01*
X154096188Y-94044263D01*
X154100398Y-94168143D01*
X154105425Y-94213452D01*
X154144302Y-94341689D01*
X154208242Y-94379084D01*
X154290857Y-94320529D01*
X154316408Y-94282296D01*
X154341451Y-94159261D01*
X154299905Y-94050327D01*
X154202202Y-93993921D01*
X154194432Y-93992853D01*
X154122384Y-93994645D01*
X154096188Y-94044263D01*
X153987386Y-94044263D01*
X153989179Y-93981007D01*
X153994471Y-93846690D01*
X154012881Y-93726055D01*
X154040081Y-93679759D01*
X154073925Y-93712930D01*
X154090982Y-93810018D01*
X154104189Y-93890657D01*
X154141481Y-93909066D01*
X154149642Y-93904601D01*
X154244228Y-93909850D01*
X154348809Y-93995011D01*
X154443733Y-94144759D01*
X154450952Y-94159261D01*
X154459858Y-94177153D01*
X154543648Y-94284805D01*
X154650683Y-94316032D01*
X154733335Y-94300442D01*
X154793917Y-94226953D01*
X154796779Y-94199962D01*
X154764577Y-94151084D01*
X154654635Y-94137875D01*
X154631792Y-94137270D01*
X154522169Y-94103544D01*
X154502311Y-94032908D01*
X154600000Y-94032908D01*
X154619361Y-94059372D01*
X154701804Y-94072978D01*
X154760740Y-94061091D01*
X154803608Y-94025240D01*
X154784582Y-94001985D01*
X154701804Y-93985170D01*
X154642662Y-93994112D01*
X154600000Y-94032908D01*
X154502311Y-94032908D01*
X154501486Y-94029973D01*
X154576057Y-93933017D01*
X154663042Y-93894442D01*
X154779664Y-93925693D01*
X154817340Y-93945328D01*
X154886893Y-94023420D01*
X154887140Y-94025240D01*
X154905411Y-94159706D01*
G37*
G36*
X153724556Y-88641279D02*
G01*
X153783519Y-88686394D01*
X153867098Y-88779439D01*
X153977900Y-88918398D01*
X154261585Y-88800817D01*
X154345598Y-88767487D01*
X154633791Y-88684359D01*
X154913698Y-88664414D01*
X155232731Y-88702871D01*
X155274997Y-88711648D01*
X155571853Y-88826492D01*
X155823900Y-89016750D01*
X156006731Y-89264705D01*
X156012354Y-89276083D01*
X156064551Y-89462833D01*
X156080614Y-89694570D01*
X156060651Y-89924799D01*
X156004771Y-90107021D01*
X155999634Y-90116656D01*
X155866262Y-90288509D01*
X155641897Y-90487800D01*
X155331979Y-90710597D01*
X154941949Y-90952969D01*
X154477248Y-91210983D01*
X154344004Y-91306869D01*
X154199106Y-91452941D01*
X154068693Y-91619099D01*
X153974504Y-91777535D01*
X153938277Y-91900440D01*
X153945871Y-91993945D01*
X154025637Y-92200618D01*
X154179728Y-92364598D01*
X154392516Y-92479117D01*
X154648368Y-92537408D01*
X154931654Y-92532706D01*
X155226744Y-92458243D01*
X155301205Y-92427512D01*
X155558033Y-92263716D01*
X155745728Y-92031289D01*
X155872230Y-91721165D01*
X155894501Y-91647239D01*
X155940210Y-91524062D01*
X155975212Y-91464997D01*
X155985340Y-91484284D01*
X156000135Y-91582833D01*
X156014869Y-91744366D01*
X156028432Y-91946385D01*
X156039715Y-92166389D01*
X156047609Y-92381877D01*
X156051005Y-92570351D01*
X156048792Y-92709309D01*
X156039863Y-92776252D01*
X156015726Y-92807346D01*
X155973471Y-92790895D01*
X155921366Y-92681701D01*
X155911059Y-92656321D01*
X155877756Y-92603776D01*
X155824256Y-92575317D01*
X155734978Y-92571571D01*
X155594344Y-92593165D01*
X155386773Y-92640724D01*
X155096684Y-92714876D01*
X154651685Y-92830784D01*
X154333157Y-92734447D01*
X154321856Y-92730982D01*
X153991543Y-92582385D01*
X153721252Y-92365911D01*
X153527376Y-92094578D01*
X153471991Y-91971310D01*
X153435882Y-91813410D01*
X153446999Y-91638863D01*
X153504068Y-91410254D01*
X153520812Y-91358347D01*
X153587315Y-91211545D01*
X153686476Y-91073048D01*
X153830094Y-90932327D01*
X154029964Y-90778855D01*
X154297885Y-90602107D01*
X154645652Y-90391553D01*
X154900650Y-90239191D01*
X155163892Y-90073614D01*
X155355570Y-89938367D01*
X155486254Y-89823854D01*
X155566513Y-89720479D01*
X155606917Y-89618647D01*
X155618036Y-89508760D01*
X155611803Y-89423707D01*
X155536190Y-89217613D01*
X155388161Y-89056385D01*
X155184652Y-88947129D01*
X154942598Y-88896949D01*
X154678936Y-88912950D01*
X154410601Y-89002236D01*
X154404951Y-89004996D01*
X154172319Y-89172057D01*
X153988266Y-89422145D01*
X153849046Y-89760320D01*
X153762956Y-90040280D01*
X153728887Y-89734869D01*
X153722485Y-89673425D01*
X153705087Y-89449771D01*
X153694246Y-89217286D01*
X153690141Y-88998042D01*
X153692952Y-88814112D01*
X153702856Y-88687567D01*
X153720032Y-88640481D01*
X153724556Y-88641279D01*
G37*
G36*
X160506005Y-90975370D02*
G01*
X160689428Y-91305437D01*
X160863188Y-91614205D01*
X161019718Y-91887924D01*
X161151454Y-92112844D01*
X161250830Y-92275217D01*
X161310279Y-92361292D01*
X161374518Y-92429586D01*
X161489699Y-92523202D01*
X161577514Y-92559919D01*
X161633218Y-92573832D01*
X161675351Y-92637839D01*
X161675333Y-92639470D01*
X161660806Y-92672017D01*
X161608392Y-92692829D01*
X161502143Y-92703568D01*
X161326112Y-92705893D01*
X161064352Y-92701466D01*
X160875581Y-92694751D01*
X160647180Y-92677373D01*
X160501639Y-92652904D01*
X160443692Y-92622897D01*
X160478074Y-92588903D01*
X160609521Y-92552471D01*
X160743730Y-92506871D01*
X160851803Y-92438148D01*
X160873893Y-92412005D01*
X160889541Y-92364748D01*
X160879036Y-92293577D01*
X160837062Y-92181948D01*
X160758302Y-92013319D01*
X160637441Y-91771148D01*
X160341655Y-91185571D01*
X159761409Y-91185571D01*
X159181163Y-91185571D01*
X159181163Y-91788503D01*
X159184866Y-92073440D01*
X159201040Y-92281644D01*
X159236842Y-92419430D01*
X159299425Y-92502637D01*
X159395945Y-92547102D01*
X159533555Y-92568665D01*
X159549814Y-92570492D01*
X159668758Y-92601917D01*
X159728934Y-92649762D01*
X159729463Y-92655134D01*
X159705413Y-92672841D01*
X159633283Y-92686305D01*
X159504125Y-92695831D01*
X159308989Y-92701724D01*
X159038925Y-92704290D01*
X158684986Y-92703835D01*
X158238220Y-92700664D01*
X156726365Y-92687174D01*
X156633547Y-92387125D01*
X156595234Y-92254321D01*
X156543641Y-92046247D01*
X156511275Y-91878107D01*
X156508312Y-91856812D01*
X156496649Y-91744575D01*
X156507971Y-91717883D01*
X156546221Y-91763838D01*
X156667393Y-91938513D01*
X156829486Y-92147693D01*
X156980371Y-92292187D01*
X157142576Y-92383178D01*
X157338626Y-92431847D01*
X157591049Y-92449377D01*
X157922370Y-92446949D01*
X158544890Y-92432665D01*
X158558846Y-91580060D01*
X158569470Y-90931062D01*
X159181163Y-90931062D01*
X159690442Y-90931062D01*
X160199722Y-90931062D01*
X159974312Y-90511122D01*
X159900420Y-90373182D01*
X159759367Y-90108974D01*
X159607100Y-89822937D01*
X159465804Y-89556713D01*
X159182707Y-89022244D01*
X159181935Y-89976653D01*
X159181163Y-90931062D01*
X158569470Y-90931062D01*
X158572803Y-90727454D01*
X158111821Y-90727454D01*
X158026988Y-90727943D01*
X157738507Y-90741807D01*
X157531310Y-90779793D01*
X157389895Y-90848651D01*
X157298759Y-90955127D01*
X157242401Y-91105973D01*
X157221360Y-91180163D01*
X157176668Y-91293599D01*
X157139048Y-91338276D01*
X157133224Y-91332253D01*
X157117865Y-91253271D01*
X157105476Y-91097036D01*
X157097202Y-90881759D01*
X157094189Y-90625651D01*
X157094281Y-90576872D01*
X157098635Y-90307567D01*
X157108810Y-90097768D01*
X157123847Y-89961559D01*
X157142784Y-89913026D01*
X157148717Y-89914226D01*
X157189855Y-89971102D01*
X157223993Y-90086871D01*
X157283184Y-90242780D01*
X157382977Y-90379557D01*
X157441483Y-90427818D01*
X157519146Y-90466311D01*
X157629374Y-90490608D01*
X157795247Y-90505494D01*
X158039844Y-90515755D01*
X158570341Y-90533114D01*
X158570341Y-89733607D01*
X158570341Y-88934099D01*
X157885796Y-88954103D01*
X157637668Y-88962187D01*
X157431799Y-88972855D01*
X157291517Y-88988254D01*
X157197483Y-89011766D01*
X157130356Y-89046775D01*
X157070795Y-89096664D01*
X157059059Y-89108256D01*
X156957969Y-89249631D01*
X156888048Y-89413418D01*
X156876206Y-89453479D01*
X156829689Y-89563457D01*
X156786816Y-89607615D01*
X156763706Y-89579302D01*
X156745042Y-89472923D01*
X156739537Y-89312212D01*
X156747827Y-89123512D01*
X156770547Y-88933166D01*
X156802098Y-88742284D01*
X158424296Y-88742284D01*
X158634806Y-88742651D01*
X159017459Y-88745331D01*
X159356746Y-88750335D01*
X159640980Y-88757342D01*
X159858474Y-88766028D01*
X159997541Y-88776069D01*
X160046493Y-88787143D01*
X160036479Y-88802921D01*
X159956654Y-88845668D01*
X159823152Y-88888240D01*
X159741431Y-88911960D01*
X159607574Y-88984207D01*
X159561121Y-89088249D01*
X159592244Y-89239019D01*
X159626222Y-89317661D01*
X159708744Y-89486782D01*
X159826997Y-89717102D01*
X159973415Y-89994870D01*
X160140433Y-90306337D01*
X160320485Y-90637753D01*
X160481658Y-90931062D01*
X160506005Y-90975370D01*
G37*
G36*
X152614840Y-90949506D02*
G01*
X152615663Y-91380999D01*
X152619210Y-91725945D01*
X152627463Y-91994520D01*
X152642406Y-92196899D01*
X152666021Y-92343259D01*
X152700292Y-92443776D01*
X152747201Y-92508627D01*
X152808731Y-92547987D01*
X152886866Y-92572032D01*
X152983587Y-92590939D01*
X153200201Y-92631003D01*
X153022044Y-92665113D01*
X152998133Y-92668374D01*
X152869395Y-92677020D01*
X152658304Y-92685152D01*
X152379061Y-92692441D01*
X152045866Y-92698553D01*
X151672917Y-92703158D01*
X151274416Y-92705924D01*
X150822053Y-92706967D01*
X150448991Y-92705589D01*
X150162391Y-92701457D01*
X149954479Y-92694299D01*
X149817485Y-92683845D01*
X149743638Y-92669823D01*
X149725164Y-92651964D01*
X149727943Y-92646003D01*
X149797235Y-92601322D01*
X149920287Y-92573291D01*
X149994259Y-92563245D01*
X150101083Y-92530000D01*
X150176888Y-92465439D01*
X150226845Y-92355489D01*
X150256127Y-92186079D01*
X150269904Y-91943139D01*
X150273347Y-91612597D01*
X150273347Y-90880160D01*
X150057014Y-90882823D01*
X149840682Y-90885485D01*
X149178958Y-91800085D01*
X148517235Y-92714684D01*
X147982766Y-92700929D01*
X147881321Y-92697655D01*
X147646218Y-92681797D01*
X147511891Y-92656882D01*
X147478507Y-92623016D01*
X147546229Y-92580307D01*
X147715224Y-92528861D01*
X147786530Y-92507614D01*
X147911494Y-92450678D01*
X148038255Y-92361376D01*
X148177463Y-92229053D01*
X148339767Y-92043056D01*
X148535819Y-91792729D01*
X148776268Y-91467418D01*
X149255715Y-90807582D01*
X148962828Y-90672891D01*
X148883049Y-90634596D01*
X148649252Y-90490768D01*
X148485493Y-90322070D01*
X148366959Y-90104848D01*
X148318418Y-89907929D01*
X149006072Y-89907929D01*
X149020027Y-90033597D01*
X149049713Y-90113696D01*
X149162937Y-90288162D01*
X149319022Y-90447021D01*
X149484180Y-90552500D01*
X149577961Y-90582972D01*
X149759086Y-90623685D01*
X149957399Y-90653957D01*
X150273347Y-90689702D01*
X150273347Y-90493461D01*
X150836579Y-90493461D01*
X150838389Y-90689702D01*
X150841424Y-91018795D01*
X150843184Y-91152444D01*
X150848791Y-91528520D01*
X150854937Y-91818900D01*
X150862646Y-92035926D01*
X150872944Y-92191940D01*
X150886855Y-92299282D01*
X150905405Y-92370293D01*
X150929619Y-92417316D01*
X150960521Y-92452690D01*
X150986089Y-92474085D01*
X151142409Y-92543494D01*
X151349856Y-92578594D01*
X151572027Y-92578684D01*
X151772519Y-92543065D01*
X151914930Y-92471037D01*
X151939403Y-92442164D01*
X151958987Y-92396839D01*
X151974195Y-92324417D01*
X151985571Y-92214225D01*
X151993659Y-92055592D01*
X151999003Y-91837845D01*
X152002146Y-91550312D01*
X152003633Y-91182322D01*
X152004008Y-90723201D01*
X152004008Y-90519001D01*
X152003487Y-90084218D01*
X152000952Y-89736742D01*
X151994821Y-89466270D01*
X151983508Y-89262498D01*
X151965431Y-89115120D01*
X151939006Y-89013833D01*
X151902648Y-88948332D01*
X151854773Y-88908314D01*
X151793798Y-88883474D01*
X151718138Y-88863507D01*
X151583831Y-88844629D01*
X151393142Y-88846524D01*
X151202470Y-88870877D01*
X151045625Y-88913035D01*
X150956419Y-88968344D01*
X150940407Y-88994057D01*
X150904864Y-89090315D01*
X150877261Y-89236537D01*
X150857114Y-89441345D01*
X150843940Y-89713355D01*
X150837256Y-90061188D01*
X150836579Y-90493461D01*
X150273347Y-90493461D01*
X150273347Y-89846174D01*
X150273347Y-89002647D01*
X150057014Y-88986994D01*
X149746269Y-88990277D01*
X149453551Y-89059099D01*
X149230501Y-89194221D01*
X149082027Y-89392523D01*
X149013038Y-89650883D01*
X149007065Y-89734495D01*
X149006072Y-89907929D01*
X148318418Y-89907929D01*
X148299658Y-89831826D01*
X148321213Y-89554957D01*
X148426760Y-89298360D01*
X148607422Y-89076701D01*
X148854324Y-88904643D01*
X149158591Y-88796851D01*
X149235369Y-88786816D01*
X149406328Y-88775453D01*
X149647063Y-88765699D01*
X149944377Y-88757588D01*
X150285073Y-88751154D01*
X150655954Y-88746432D01*
X151043824Y-88743454D01*
X151435486Y-88742256D01*
X151817742Y-88742870D01*
X152177397Y-88745331D01*
X152501252Y-88749673D01*
X152776112Y-88755929D01*
X152988780Y-88764134D01*
X153126058Y-88774322D01*
X153174750Y-88786526D01*
X153172397Y-88793952D01*
X153110325Y-88830505D01*
X152990280Y-88860703D01*
X152932245Y-88869938D01*
X152843642Y-88887081D01*
X152773265Y-88913692D01*
X152719016Y-88960032D01*
X152678800Y-89036359D01*
X152650521Y-89152932D01*
X152632083Y-89320011D01*
X152621391Y-89547854D01*
X152616349Y-89846722D01*
X152614860Y-90226873D01*
X152614830Y-90698567D01*
X152614831Y-90723201D01*
X152614840Y-90949506D01*
G37*
%TD*%
M02*
