%TF.GenerationSoftware,KiCad,Pcbnew,7.0.9*%
%TF.CreationDate,2024-01-06T14:55:19-06:00*%
%TF.ProjectId,Capsense_v2,43617073-656e-4736-955f-76322e6b6963,rev?*%
%TF.SameCoordinates,Original*%
%TF.FileFunction,Paste,Top*%
%TF.FilePolarity,Positive*%
%FSLAX46Y46*%
G04 Gerber Fmt 4.6, Leading zero omitted, Abs format (unit mm)*
G04 Created by KiCad (PCBNEW 7.0.9) date 2024-01-06 14:55:19*
%MOMM*%
%LPD*%
G01*
G04 APERTURE LIST*
G04 Aperture macros list*
%AMRoundRect*
0 Rectangle with rounded corners*
0 $1 Rounding radius*
0 $2 $3 $4 $5 $6 $7 $8 $9 X,Y pos of 4 corners*
0 Add a 4 corners polygon primitive as box body*
4,1,4,$2,$3,$4,$5,$6,$7,$8,$9,$2,$3,0*
0 Add four circle primitives for the rounded corners*
1,1,$1+$1,$2,$3*
1,1,$1+$1,$4,$5*
1,1,$1+$1,$6,$7*
1,1,$1+$1,$8,$9*
0 Add four rect primitives between the rounded corners*
20,1,$1+$1,$2,$3,$4,$5,0*
20,1,$1+$1,$4,$5,$6,$7,0*
20,1,$1+$1,$6,$7,$8,$9,0*
20,1,$1+$1,$8,$9,$2,$3,0*%
G04 Aperture macros list end*
%ADD10RoundRect,0.250000X-0.262500X-0.450000X0.262500X-0.450000X0.262500X0.450000X-0.262500X0.450000X0*%
%ADD11RoundRect,0.225000X-0.225000X-0.250000X0.225000X-0.250000X0.225000X0.250000X-0.225000X0.250000X0*%
%ADD12RoundRect,0.250000X0.250000X0.475000X-0.250000X0.475000X-0.250000X-0.475000X0.250000X-0.475000X0*%
%ADD13RoundRect,0.250000X-0.450000X0.262500X-0.450000X-0.262500X0.450000X-0.262500X0.450000X0.262500X0*%
%ADD14RoundRect,0.250000X0.262500X0.450000X-0.262500X0.450000X-0.262500X-0.450000X0.262500X-0.450000X0*%
%ADD15RoundRect,0.243750X0.456250X-0.243750X0.456250X0.243750X-0.456250X0.243750X-0.456250X-0.243750X0*%
%ADD16RoundRect,0.250000X-0.250000X-0.475000X0.250000X-0.475000X0.250000X0.475000X-0.250000X0.475000X0*%
%ADD17R,1.000000X0.800000*%
%ADD18R,0.700000X1.500000*%
%ADD19RoundRect,0.250000X0.450000X-0.262500X0.450000X0.262500X-0.450000X0.262500X-0.450000X-0.262500X0*%
%ADD20RoundRect,0.150000X0.150000X-0.512500X0.150000X0.512500X-0.150000X0.512500X-0.150000X-0.512500X0*%
%ADD21R,0.599999X0.249999*%
%ADD22R,0.249999X0.599999*%
%ADD23RoundRect,0.250000X0.475000X-0.250000X0.475000X0.250000X-0.475000X0.250000X-0.475000X-0.250000X0*%
%ADD24R,1.000000X1.800000*%
G04 APERTURE END LIST*
%TO.C,U1*%
G36*
X139808024Y-69671004D02*
G01*
X139817808Y-69673971D01*
X139826823Y-69678789D01*
X139834725Y-69685276D01*
X139841212Y-69693178D01*
X139846030Y-69702193D01*
X139848997Y-69711977D01*
X139850000Y-69722149D01*
X139850000Y-71107851D01*
X139848997Y-71118024D01*
X139846030Y-71127808D01*
X139841212Y-71136823D01*
X139834725Y-71144725D01*
X139826823Y-71151212D01*
X139817808Y-71156030D01*
X139808024Y-71158997D01*
X139797851Y-71160000D01*
X138412149Y-71160000D01*
X138401977Y-71158997D01*
X138392193Y-71156030D01*
X138383178Y-71151212D01*
X138375276Y-71144725D01*
X138368789Y-71136823D01*
X138363971Y-71127808D01*
X138361004Y-71118024D01*
X138360001Y-71107851D01*
X138360001Y-69722149D01*
X138361004Y-69711977D01*
X138363971Y-69702193D01*
X138368789Y-69693178D01*
X138375276Y-69685276D01*
X138383178Y-69678789D01*
X138392193Y-69673971D01*
X138401977Y-69671004D01*
X138412149Y-69670001D01*
X139797851Y-69670001D01*
X139808024Y-69671004D01*
G37*
G36*
X139808024Y-71361003D02*
G01*
X139817808Y-71363970D01*
X139826823Y-71368788D01*
X139834725Y-71375275D01*
X139841212Y-71383177D01*
X139846030Y-71392192D01*
X139848997Y-71401976D01*
X139850000Y-71412149D01*
X139850000Y-72797851D01*
X139848997Y-72808023D01*
X139846030Y-72817807D01*
X139841212Y-72826822D01*
X139834725Y-72834724D01*
X139826823Y-72841211D01*
X139817808Y-72846029D01*
X139808024Y-72848996D01*
X139797851Y-72849999D01*
X138412149Y-72849999D01*
X138401977Y-72848996D01*
X138392193Y-72846029D01*
X138383178Y-72841211D01*
X138375276Y-72834724D01*
X138368789Y-72826822D01*
X138363971Y-72817807D01*
X138361004Y-72808023D01*
X138360001Y-72797851D01*
X138360001Y-71412149D01*
X138361004Y-71401976D01*
X138363971Y-71392192D01*
X138368789Y-71383177D01*
X138375276Y-71375275D01*
X138383178Y-71368788D01*
X138392193Y-71363970D01*
X138401977Y-71361003D01*
X138412149Y-71360000D01*
X139797851Y-71360000D01*
X139808024Y-71361003D01*
G37*
G36*
X141498023Y-69671004D02*
G01*
X141507807Y-69673971D01*
X141516822Y-69678789D01*
X141524724Y-69685276D01*
X141531211Y-69693178D01*
X141536029Y-69702193D01*
X141538996Y-69711977D01*
X141539999Y-69722149D01*
X141539999Y-71107851D01*
X141538996Y-71118024D01*
X141536029Y-71127808D01*
X141531211Y-71136823D01*
X141524724Y-71144725D01*
X141516822Y-71151212D01*
X141507807Y-71156030D01*
X141498023Y-71158997D01*
X141487851Y-71160000D01*
X140102149Y-71160000D01*
X140091976Y-71158997D01*
X140082192Y-71156030D01*
X140073177Y-71151212D01*
X140065275Y-71144725D01*
X140058788Y-71136823D01*
X140053970Y-71127808D01*
X140051003Y-71118024D01*
X140050000Y-71107851D01*
X140050000Y-69722149D01*
X140051003Y-69711977D01*
X140053970Y-69702193D01*
X140058788Y-69693178D01*
X140065275Y-69685276D01*
X140073177Y-69678789D01*
X140082192Y-69673971D01*
X140091976Y-69671004D01*
X140102149Y-69670001D01*
X141487851Y-69670001D01*
X141498023Y-69671004D01*
G37*
G36*
X141498023Y-71361003D02*
G01*
X141507807Y-71363970D01*
X141516822Y-71368788D01*
X141524724Y-71375275D01*
X141531211Y-71383177D01*
X141536029Y-71392192D01*
X141538996Y-71401976D01*
X141539999Y-71412149D01*
X141539999Y-72797851D01*
X141538996Y-72808023D01*
X141536029Y-72817807D01*
X141531211Y-72826822D01*
X141524724Y-72834724D01*
X141516822Y-72841211D01*
X141507807Y-72846029D01*
X141498023Y-72848996D01*
X141487851Y-72849999D01*
X140102149Y-72849999D01*
X140091976Y-72848996D01*
X140082192Y-72846029D01*
X140073177Y-72841211D01*
X140065275Y-72834724D01*
X140058788Y-72826822D01*
X140053970Y-72817807D01*
X140051003Y-72808023D01*
X140050000Y-72797851D01*
X140050000Y-71412149D01*
X140051003Y-71401976D01*
X140053970Y-71392192D01*
X140058788Y-71383177D01*
X140065275Y-71375275D01*
X140073177Y-71368788D01*
X140082192Y-71363970D01*
X140091976Y-71361003D01*
X140102149Y-71360000D01*
X141487851Y-71360000D01*
X141498023Y-71361003D01*
G37*
%TD*%
D10*
%TO.C,R18*%
X154574500Y-68180000D03*
X156399500Y-68180000D03*
%TD*%
%TO.C,R9*%
X154700500Y-91040000D03*
X156525500Y-91040000D03*
%TD*%
D11*
%TO.C,C3*%
X146025000Y-72000000D03*
X147575000Y-72000000D03*
%TD*%
D10*
%TO.C,R10*%
X154700500Y-88500000D03*
X156525500Y-88500000D03*
%TD*%
D12*
%TO.C,C1*%
X135939892Y-68200000D03*
X134039892Y-68200000D03*
%TD*%
D13*
%TO.C,R5*%
X129621228Y-80181620D03*
X129621228Y-82006620D03*
%TD*%
D10*
%TO.C,R17*%
X154637500Y-70720000D03*
X156462500Y-70720000D03*
%TD*%
D14*
%TO.C,R1*%
X138112500Y-78232000D03*
X136287500Y-78232000D03*
%TD*%
D15*
%TO.C,D3*%
X132834097Y-78164914D03*
X132834097Y-76289914D03*
%TD*%
D16*
%TO.C,C6*%
X128974000Y-61000000D03*
X130874000Y-61000000D03*
%TD*%
D10*
%TO.C,R8*%
X154700500Y-93580000D03*
X156525500Y-93580000D03*
%TD*%
%TO.C,R19*%
X154574500Y-65640000D03*
X156399500Y-65640000D03*
%TD*%
%TO.C,R12*%
X154755870Y-83449653D03*
X156580870Y-83449653D03*
%TD*%
%TO.C,R2*%
X139803500Y-78232000D03*
X141628500Y-78232000D03*
%TD*%
D17*
%TO.C,SW2*%
X121450000Y-94990000D03*
X121450000Y-97200000D03*
X128750000Y-94990000D03*
X128750000Y-97200000D03*
D18*
X122850000Y-94340000D03*
X125850000Y-94340000D03*
X127350000Y-94340000D03*
%TD*%
D10*
%TO.C,R20*%
X154574500Y-63100000D03*
X156399500Y-63100000D03*
%TD*%
%TO.C,R16*%
X154637500Y-73260000D03*
X156462500Y-73260000D03*
%TD*%
%TO.C,R22*%
X154574500Y-58020000D03*
X156399500Y-58020000D03*
%TD*%
D13*
%TO.C,R4*%
X126466309Y-80221067D03*
X126466309Y-82046067D03*
%TD*%
D10*
%TO.C,R14*%
X154700500Y-78340000D03*
X156525500Y-78340000D03*
%TD*%
D19*
%TO.C,R7*%
X126900000Y-88500000D03*
X126900000Y-86675000D03*
%TD*%
D14*
%TO.C,R3*%
X130912500Y-64400000D03*
X129087500Y-64400000D03*
%TD*%
D16*
%TO.C,C7*%
X121050000Y-89000000D03*
X122950000Y-89000000D03*
%TD*%
%TO.C,C4*%
X140250000Y-65209290D03*
X142150000Y-65209290D03*
%TD*%
D10*
%TO.C,R13*%
X154747775Y-80880000D03*
X156572775Y-80880000D03*
%TD*%
D20*
%TO.C,U2*%
X116700000Y-91600000D03*
X117650000Y-91600000D03*
X118600000Y-91600000D03*
X118600000Y-89325000D03*
X116700000Y-89325000D03*
%TD*%
D15*
%TO.C,D1*%
X126355998Y-78174332D03*
X126355998Y-76299332D03*
%TD*%
D12*
%TO.C,C5*%
X138810907Y-65223302D03*
X136910907Y-65223302D03*
%TD*%
D10*
%TO.C,R21*%
X154574500Y-60560000D03*
X156399500Y-60560000D03*
%TD*%
%TO.C,R11*%
X154700500Y-85960000D03*
X156525500Y-85960000D03*
%TD*%
D21*
%TO.C,U1*%
X137550000Y-69509998D03*
X137550000Y-70009997D03*
X137550000Y-70509999D03*
X137550000Y-71009998D03*
X137550000Y-71510000D03*
X137550000Y-72009998D03*
X137550000Y-72509997D03*
X137550000Y-73009999D03*
D22*
X138200001Y-73660000D03*
X138700000Y-73660000D03*
X139200002Y-73660000D03*
X139700000Y-73660000D03*
X140200002Y-73660000D03*
X140700001Y-73660000D03*
X141200000Y-73660000D03*
X141700002Y-73660000D03*
D21*
X142350000Y-73009999D03*
X142350000Y-72509997D03*
X142350000Y-72009998D03*
X142350000Y-71510000D03*
X142350000Y-71009998D03*
X142350000Y-70509999D03*
X142350000Y-70009997D03*
X142350000Y-69509998D03*
D22*
X141700002Y-68860000D03*
X141200000Y-68860000D03*
X140700001Y-68860000D03*
X140200002Y-68860000D03*
X139700000Y-68860000D03*
X139200002Y-68860000D03*
X138700000Y-68860000D03*
X138200001Y-68860000D03*
%TD*%
D23*
%TO.C,C2*%
X134500000Y-66465722D03*
X134500000Y-64565722D03*
%TD*%
D15*
%TO.C,D2*%
X129601332Y-78154349D03*
X129601332Y-76279349D03*
%TD*%
D13*
%TO.C,R6*%
X132800000Y-80087500D03*
X132800000Y-81912500D03*
%TD*%
D10*
%TO.C,R15*%
X154700500Y-75800000D03*
X156525500Y-75800000D03*
%TD*%
%TO.C,R23*%
X154637500Y-55480000D03*
X156462500Y-55480000D03*
%TD*%
D24*
%TO.C,Y1*%
X140857423Y-61600000D03*
X138357423Y-61600000D03*
%TD*%
M02*
