%TF.GenerationSoftware,KiCad,Pcbnew,7.0.9*%
%TF.CreationDate,2024-01-06T14:55:19-06:00*%
%TF.ProjectId,Capsense_v2,43617073-656e-4736-955f-76322e6b6963,rev?*%
%TF.SameCoordinates,Original*%
%TF.FileFunction,Soldermask,Top*%
%TF.FilePolarity,Negative*%
%FSLAX46Y46*%
G04 Gerber Fmt 4.6, Leading zero omitted, Abs format (unit mm)*
G04 Created by KiCad (PCBNEW 7.0.9) date 2024-01-06 14:55:19*
%MOMM*%
%LPD*%
G01*
G04 APERTURE LIST*
G04 Aperture macros list*
%AMRoundRect*
0 Rectangle with rounded corners*
0 $1 Rounding radius*
0 $2 $3 $4 $5 $6 $7 $8 $9 X,Y pos of 4 corners*
0 Add a 4 corners polygon primitive as box body*
4,1,4,$2,$3,$4,$5,$6,$7,$8,$9,$2,$3,0*
0 Add four circle primitives for the rounded corners*
1,1,$1+$1,$2,$3*
1,1,$1+$1,$4,$5*
1,1,$1+$1,$6,$7*
1,1,$1+$1,$8,$9*
0 Add four rect primitives between the rounded corners*
20,1,$1+$1,$2,$3,$4,$5,0*
20,1,$1+$1,$4,$5,$6,$7,0*
20,1,$1+$1,$6,$7,$8,$9,0*
20,1,$1+$1,$8,$9,$2,$3,0*%
G04 Aperture macros list end*
%ADD10RoundRect,0.250000X-0.262500X-0.450000X0.262500X-0.450000X0.262500X0.450000X-0.262500X0.450000X0*%
%ADD11RoundRect,0.225000X-0.225000X-0.250000X0.225000X-0.250000X0.225000X0.250000X-0.225000X0.250000X0*%
%ADD12R,1.700000X1.700000*%
%ADD13O,1.700000X1.700000*%
%ADD14RoundRect,0.250000X0.250000X0.475000X-0.250000X0.475000X-0.250000X-0.475000X0.250000X-0.475000X0*%
%ADD15RoundRect,0.250000X-0.450000X0.262500X-0.450000X-0.262500X0.450000X-0.262500X0.450000X0.262500X0*%
%ADD16RoundRect,0.250000X0.262500X0.450000X-0.262500X0.450000X-0.262500X-0.450000X0.262500X-0.450000X0*%
%ADD17RoundRect,0.243750X0.456250X-0.243750X0.456250X0.243750X-0.456250X0.243750X-0.456250X-0.243750X0*%
%ADD18RoundRect,0.250000X-0.250000X-0.475000X0.250000X-0.475000X0.250000X0.475000X-0.250000X0.475000X0*%
%ADD19RoundRect,0.250000X0.600000X0.600000X-0.600000X0.600000X-0.600000X-0.600000X0.600000X-0.600000X0*%
%ADD20C,1.700000*%
%ADD21R,1.000000X0.800000*%
%ADD22C,0.900000*%
%ADD23R,0.700000X1.500000*%
%ADD24RoundRect,0.250000X0.450000X-0.262500X0.450000X0.262500X-0.450000X0.262500X-0.450000X-0.262500X0*%
%ADD25C,2.100000*%
%ADD26C,1.750000*%
%ADD27RoundRect,0.250000X-0.625000X0.350000X-0.625000X-0.350000X0.625000X-0.350000X0.625000X0.350000X0*%
%ADD28O,1.750000X1.200000*%
%ADD29RoundRect,0.150000X0.150000X-0.512500X0.150000X0.512500X-0.150000X0.512500X-0.150000X-0.512500X0*%
%ADD30R,0.599999X0.249999*%
%ADD31R,0.249999X0.599999*%
%ADD32R,3.450001X3.450001*%
%ADD33RoundRect,0.250000X0.475000X-0.250000X0.475000X0.250000X-0.475000X0.250000X-0.475000X-0.250000X0*%
%ADD34R,1.000000X1.800000*%
G04 APERTURE END LIST*
D10*
%TO.C,R18*%
X154574500Y-68180000D03*
X156399500Y-68180000D03*
%TD*%
%TO.C,R9*%
X154700500Y-91040000D03*
X156525500Y-91040000D03*
%TD*%
D11*
%TO.C,C3*%
X146025000Y-72000000D03*
X147575000Y-72000000D03*
%TD*%
D10*
%TO.C,R10*%
X154700500Y-88500000D03*
X156525500Y-88500000D03*
%TD*%
D12*
%TO.C,J5*%
X163170000Y-55480000D03*
X165710000Y-55480000D03*
X168250000Y-55480000D03*
D13*
X163170000Y-58020000D03*
X165710000Y-58020000D03*
X168250000Y-58020000D03*
X163170000Y-60560000D03*
X165710000Y-60560000D03*
X168250000Y-60560000D03*
X163170000Y-63100000D03*
X165710000Y-63100000D03*
X168250000Y-63100000D03*
X163170000Y-65640000D03*
X165710000Y-65640000D03*
X168250000Y-65640000D03*
X163170000Y-68180000D03*
X165710000Y-68180000D03*
X168250000Y-68180000D03*
X163170000Y-70720000D03*
X165710000Y-70720000D03*
X168250000Y-70720000D03*
X163170000Y-73260000D03*
X165710000Y-73260000D03*
X168250000Y-73260000D03*
X163170000Y-75800000D03*
X165710000Y-75800000D03*
X168250000Y-75800000D03*
X163170000Y-78340000D03*
X165710000Y-78340000D03*
X168250000Y-78340000D03*
X163170000Y-80880000D03*
X165710000Y-80880000D03*
X168250000Y-80880000D03*
X163170000Y-83420000D03*
X165710000Y-83420000D03*
X168250000Y-83420000D03*
X163170000Y-85960000D03*
X165710000Y-85960000D03*
X168250000Y-85960000D03*
X163170000Y-88500000D03*
X165710000Y-88500000D03*
X168250000Y-88500000D03*
X163170000Y-91040000D03*
X165710000Y-91040000D03*
X168250000Y-91040000D03*
X163170000Y-93580000D03*
X165710000Y-93580000D03*
X168250000Y-93580000D03*
%TD*%
D14*
%TO.C,C1*%
X135939892Y-68200000D03*
X134039892Y-68200000D03*
%TD*%
D15*
%TO.C,R5*%
X129621228Y-80181620D03*
X129621228Y-82006620D03*
%TD*%
D10*
%TO.C,R17*%
X154637500Y-70720000D03*
X156462500Y-70720000D03*
%TD*%
D16*
%TO.C,R1*%
X138112500Y-78232000D03*
X136287500Y-78232000D03*
%TD*%
D17*
%TO.C,D3*%
X132834097Y-78164914D03*
X132834097Y-76289914D03*
%TD*%
D18*
%TO.C,C6*%
X128974000Y-61000000D03*
X130874000Y-61000000D03*
%TD*%
D10*
%TO.C,R8*%
X154700500Y-93580000D03*
X156525500Y-93580000D03*
%TD*%
%TO.C,R19*%
X154574500Y-65640000D03*
X156399500Y-65640000D03*
%TD*%
D19*
%TO.C,J3*%
X119600000Y-80000000D03*
D20*
X117060000Y-80000000D03*
X119600000Y-77460000D03*
X117060000Y-77460000D03*
X119600000Y-74920000D03*
X117060000Y-74920000D03*
X119600000Y-72380000D03*
X117060000Y-72380000D03*
X119600000Y-69840000D03*
X117060000Y-69840000D03*
X119600000Y-67300000D03*
X117060000Y-67300000D03*
X119600000Y-64760000D03*
X117060000Y-64760000D03*
%TD*%
D10*
%TO.C,R12*%
X154755870Y-83449653D03*
X156580870Y-83449653D03*
%TD*%
D12*
%TO.C,J2*%
X137180000Y-56800000D03*
D13*
X139720000Y-56800000D03*
X142260000Y-56800000D03*
X144800000Y-56800000D03*
%TD*%
D10*
%TO.C,R2*%
X139803500Y-78232000D03*
X141628500Y-78232000D03*
%TD*%
D21*
%TO.C,SW2*%
X121450000Y-94990000D03*
X121450000Y-97200000D03*
D22*
X123600000Y-96100000D03*
X126600000Y-96100000D03*
D21*
X128750000Y-94990000D03*
X128750000Y-97200000D03*
D23*
X122850000Y-94340000D03*
X125850000Y-94340000D03*
X127350000Y-94340000D03*
%TD*%
D10*
%TO.C,R20*%
X154574500Y-63100000D03*
X156399500Y-63100000D03*
%TD*%
%TO.C,R16*%
X154637500Y-73260000D03*
X156462500Y-73260000D03*
%TD*%
%TO.C,R22*%
X154574500Y-58020000D03*
X156399500Y-58020000D03*
%TD*%
D15*
%TO.C,R4*%
X126466309Y-80221067D03*
X126466309Y-82046067D03*
%TD*%
D10*
%TO.C,R14*%
X154700500Y-78340000D03*
X156525500Y-78340000D03*
%TD*%
D24*
%TO.C,R7*%
X126900000Y-88500000D03*
X126900000Y-86675000D03*
%TD*%
D16*
%TO.C,R3*%
X130912500Y-64400000D03*
X129087500Y-64400000D03*
%TD*%
D18*
%TO.C,C7*%
X121050000Y-89000000D03*
X122950000Y-89000000D03*
%TD*%
%TO.C,C4*%
X140250000Y-65209290D03*
X142150000Y-65209290D03*
%TD*%
D25*
%TO.C,SW1*%
X118390000Y-54290000D03*
X125400000Y-54290000D03*
D26*
X119640000Y-51800000D03*
X124140000Y-51800000D03*
%TD*%
D27*
%TO.C,J8*%
X112400000Y-91400000D03*
D28*
X112400000Y-93400000D03*
%TD*%
D10*
%TO.C,R13*%
X154747775Y-80880000D03*
X156572775Y-80880000D03*
%TD*%
D29*
%TO.C,U2*%
X116700000Y-91600000D03*
X117650000Y-91600000D03*
X118600000Y-91600000D03*
X118600000Y-89325000D03*
X116700000Y-89325000D03*
%TD*%
D12*
%TO.C,J1*%
X136630000Y-93000000D03*
D13*
X139170000Y-93000000D03*
X141710000Y-93000000D03*
X144250000Y-93000000D03*
%TD*%
D17*
%TO.C,D1*%
X126355998Y-78174332D03*
X126355998Y-76299332D03*
%TD*%
D14*
%TO.C,C5*%
X138810907Y-65223302D03*
X136910907Y-65223302D03*
%TD*%
D10*
%TO.C,R21*%
X154574500Y-60560000D03*
X156399500Y-60560000D03*
%TD*%
%TO.C,R11*%
X154700500Y-85960000D03*
X156525500Y-85960000D03*
%TD*%
D30*
%TO.C,U1*%
X137550000Y-69509998D03*
X137550000Y-70009997D03*
X137550000Y-70509999D03*
X137550000Y-71009998D03*
X137550000Y-71510000D03*
X137550000Y-72009998D03*
X137550000Y-72509997D03*
X137550000Y-73009999D03*
D31*
X138200001Y-73660000D03*
X138700000Y-73660000D03*
X139200002Y-73660000D03*
X139700000Y-73660000D03*
X140200002Y-73660000D03*
X140700001Y-73660000D03*
X141200000Y-73660000D03*
X141700002Y-73660000D03*
D30*
X142350000Y-73009999D03*
X142350000Y-72509997D03*
X142350000Y-72009998D03*
X142350000Y-71510000D03*
X142350000Y-71009998D03*
X142350000Y-70509999D03*
X142350000Y-70009997D03*
X142350000Y-69509998D03*
D31*
X141700002Y-68860000D03*
X141200000Y-68860000D03*
X140700001Y-68860000D03*
X140200002Y-68860000D03*
X139700000Y-68860000D03*
X139200002Y-68860000D03*
X138700000Y-68860000D03*
X138200001Y-68860000D03*
D32*
X139950000Y-71259997D03*
%TD*%
D33*
%TO.C,C2*%
X134500000Y-66465722D03*
X134500000Y-64565722D03*
%TD*%
D17*
%TO.C,D2*%
X129601332Y-78154349D03*
X129601332Y-76279349D03*
%TD*%
D12*
%TO.C,J4*%
X110800000Y-76520000D03*
D13*
X110800000Y-79060000D03*
X110800000Y-81600000D03*
%TD*%
D15*
%TO.C,R6*%
X132800000Y-80087500D03*
X132800000Y-81912500D03*
%TD*%
D10*
%TO.C,R15*%
X154700500Y-75800000D03*
X156525500Y-75800000D03*
%TD*%
%TO.C,R23*%
X154637500Y-55480000D03*
X156462500Y-55480000D03*
%TD*%
D34*
%TO.C,Y1*%
X140857423Y-61600000D03*
X138357423Y-61600000D03*
%TD*%
M02*
